G04 #@! TF.GenerationSoftware,KiCad,Pcbnew,(6.0.8)*
G04 #@! TF.CreationDate,2023-03-10T19:02:43+01:00*
G04 #@! TF.ProjectId,Jlink_power_supply,4a6c696e-6b5f-4706-9f77-65725f737570,rev?*
G04 #@! TF.SameCoordinates,Original*
G04 #@! TF.FileFunction,Legend,Top*
G04 #@! TF.FilePolarity,Positive*
%FSLAX46Y46*%
G04 Gerber Fmt 4.6, Leading zero omitted, Abs format (unit mm)*
G04 Created by KiCad (PCBNEW (6.0.8)) date 2023-03-10 19:02:43*
%MOMM*%
%LPD*%
G01*
G04 APERTURE LIST*
%ADD10C,0.200000*%
%ADD11C,0.300000*%
%ADD12C,0.250000*%
%ADD13C,0.150000*%
%ADD14C,0.120000*%
G04 APERTURE END LIST*
D10*
X146050000Y-104140000D02*
X146050000Y-105410000D01*
D11*
X130623571Y-103730714D02*
X130623571Y-102802142D01*
X131195000Y-103302142D01*
X131195000Y-103087857D01*
X131266428Y-102945000D01*
X131337857Y-102873571D01*
X131480714Y-102802142D01*
X131837857Y-102802142D01*
X131980714Y-102873571D01*
X132052142Y-102945000D01*
X132123571Y-103087857D01*
X132123571Y-103516428D01*
X132052142Y-103659285D01*
X131980714Y-103730714D01*
X130623571Y-102373571D02*
X132123571Y-101873571D01*
X130623571Y-101373571D01*
X130623571Y-101016428D02*
X130623571Y-100087857D01*
X131195000Y-100587857D01*
X131195000Y-100373571D01*
X131266428Y-100230714D01*
X131337857Y-100159285D01*
X131480714Y-100087857D01*
X131837857Y-100087857D01*
X131980714Y-100159285D01*
X132052142Y-100230714D01*
X132123571Y-100373571D01*
X132123571Y-100802142D01*
X132052142Y-100945000D01*
X131980714Y-101016428D01*
X125543571Y-102873571D02*
X125543571Y-103587857D01*
X126257857Y-103659285D01*
X126186428Y-103587857D01*
X126115000Y-103445000D01*
X126115000Y-103087857D01*
X126186428Y-102945000D01*
X126257857Y-102873571D01*
X126400714Y-102802142D01*
X126757857Y-102802142D01*
X126900714Y-102873571D01*
X126972142Y-102945000D01*
X127043571Y-103087857D01*
X127043571Y-103445000D01*
X126972142Y-103587857D01*
X126900714Y-103659285D01*
X125543571Y-102373571D02*
X127043571Y-101873571D01*
X125543571Y-101373571D01*
X129583571Y-103587857D02*
X128083571Y-103587857D01*
X129583571Y-102730714D01*
X128083571Y-102730714D01*
X129440714Y-101159285D02*
X129512142Y-101230714D01*
X129583571Y-101445000D01*
X129583571Y-101587857D01*
X129512142Y-101802142D01*
X129369285Y-101945000D01*
X129226428Y-102016428D01*
X128940714Y-102087857D01*
X128726428Y-102087857D01*
X128440714Y-102016428D01*
X128297857Y-101945000D01*
X128155000Y-101802142D01*
X128083571Y-101587857D01*
X128083571Y-101445000D01*
X128155000Y-101230714D01*
X128226428Y-101159285D01*
D12*
X115679761Y-123143095D02*
X115246428Y-122524047D01*
X114936904Y-123143095D02*
X114936904Y-121843095D01*
X115432142Y-121843095D01*
X115555952Y-121905000D01*
X115617857Y-121966904D01*
X115679761Y-122090714D01*
X115679761Y-122276428D01*
X115617857Y-122400238D01*
X115555952Y-122462142D01*
X115432142Y-122524047D01*
X114936904Y-122524047D01*
X116732142Y-123081190D02*
X116608333Y-123143095D01*
X116360714Y-123143095D01*
X116236904Y-123081190D01*
X116175000Y-122957380D01*
X116175000Y-122462142D01*
X116236904Y-122338333D01*
X116360714Y-122276428D01*
X116608333Y-122276428D01*
X116732142Y-122338333D01*
X116794047Y-122462142D01*
X116794047Y-122585952D01*
X116175000Y-122709761D01*
X117227380Y-122276428D02*
X117536904Y-123143095D01*
X117846428Y-122276428D01*
X119765476Y-122462142D02*
X119951190Y-122524047D01*
X120013095Y-122585952D01*
X120075000Y-122709761D01*
X120075000Y-122895476D01*
X120013095Y-123019285D01*
X119951190Y-123081190D01*
X119827380Y-123143095D01*
X119332142Y-123143095D01*
X119332142Y-121843095D01*
X119765476Y-121843095D01*
X119889285Y-121905000D01*
X119951190Y-121966904D01*
X120013095Y-122090714D01*
X120013095Y-122214523D01*
X119951190Y-122338333D01*
X119889285Y-122400238D01*
X119765476Y-122462142D01*
X119332142Y-122462142D01*
D13*
X130073095Y-113697380D02*
X130073095Y-114506904D01*
X130120714Y-114602142D01*
X130168333Y-114649761D01*
X130263571Y-114697380D01*
X130454047Y-114697380D01*
X130549285Y-114649761D01*
X130596904Y-114602142D01*
X130644523Y-114506904D01*
X130644523Y-113697380D01*
X131644523Y-114697380D02*
X131073095Y-114697380D01*
X131358809Y-114697380D02*
X131358809Y-113697380D01*
X131263571Y-113840238D01*
X131168333Y-113935476D01*
X131073095Y-113983095D01*
X142931666Y-89622380D02*
X142931666Y-90336666D01*
X142884047Y-90479523D01*
X142788809Y-90574761D01*
X142645952Y-90622380D01*
X142550714Y-90622380D01*
X143312619Y-89622380D02*
X143931666Y-89622380D01*
X143598333Y-90003333D01*
X143741190Y-90003333D01*
X143836428Y-90050952D01*
X143884047Y-90098571D01*
X143931666Y-90193809D01*
X143931666Y-90431904D01*
X143884047Y-90527142D01*
X143836428Y-90574761D01*
X143741190Y-90622380D01*
X143455476Y-90622380D01*
X143360238Y-90574761D01*
X143312619Y-90527142D01*
X122852380Y-96218333D02*
X123566666Y-96218333D01*
X123709523Y-96265952D01*
X123804761Y-96361190D01*
X123852380Y-96504047D01*
X123852380Y-96599285D01*
X122947619Y-95789761D02*
X122900000Y-95742142D01*
X122852380Y-95646904D01*
X122852380Y-95408809D01*
X122900000Y-95313571D01*
X122947619Y-95265952D01*
X123042857Y-95218333D01*
X123138095Y-95218333D01*
X123280952Y-95265952D01*
X123852380Y-95837380D01*
X123852380Y-95218333D01*
X134389761Y-102694761D02*
X134437380Y-102551904D01*
X134437380Y-102313809D01*
X134389761Y-102218571D01*
X134342142Y-102170952D01*
X134246904Y-102123333D01*
X134151666Y-102123333D01*
X134056428Y-102170952D01*
X134008809Y-102218571D01*
X133961190Y-102313809D01*
X133913571Y-102504285D01*
X133865952Y-102599523D01*
X133818333Y-102647142D01*
X133723095Y-102694761D01*
X133627857Y-102694761D01*
X133532619Y-102647142D01*
X133485000Y-102599523D01*
X133437380Y-102504285D01*
X133437380Y-102266190D01*
X133485000Y-102123333D01*
X133770714Y-101266190D02*
X134437380Y-101266190D01*
X133770714Y-101694761D02*
X134294523Y-101694761D01*
X134389761Y-101647142D01*
X134437380Y-101551904D01*
X134437380Y-101409047D01*
X134389761Y-101313809D01*
X134342142Y-101266190D01*
X133770714Y-100790000D02*
X134770714Y-100790000D01*
X133818333Y-100790000D02*
X133770714Y-100694761D01*
X133770714Y-100504285D01*
X133818333Y-100409047D01*
X133865952Y-100361428D01*
X133961190Y-100313809D01*
X134246904Y-100313809D01*
X134342142Y-100361428D01*
X134389761Y-100409047D01*
X134437380Y-100504285D01*
X134437380Y-100694761D01*
X134389761Y-100790000D01*
X133770714Y-99885238D02*
X134770714Y-99885238D01*
X133818333Y-99885238D02*
X133770714Y-99790000D01*
X133770714Y-99599523D01*
X133818333Y-99504285D01*
X133865952Y-99456666D01*
X133961190Y-99409047D01*
X134246904Y-99409047D01*
X134342142Y-99456666D01*
X134389761Y-99504285D01*
X134437380Y-99599523D01*
X134437380Y-99790000D01*
X134389761Y-99885238D01*
X134437380Y-98837619D02*
X134389761Y-98932857D01*
X134294523Y-98980476D01*
X133437380Y-98980476D01*
X133770714Y-98551904D02*
X134437380Y-98313809D01*
X133770714Y-98075714D02*
X134437380Y-98313809D01*
X134675476Y-98409047D01*
X134723095Y-98456666D01*
X134770714Y-98551904D01*
X134389761Y-96980476D02*
X134437380Y-96885238D01*
X134437380Y-96694761D01*
X134389761Y-96599523D01*
X134294523Y-96551904D01*
X134246904Y-96551904D01*
X134151666Y-96599523D01*
X134104047Y-96694761D01*
X134104047Y-96837619D01*
X134056428Y-96932857D01*
X133961190Y-96980476D01*
X133913571Y-96980476D01*
X133818333Y-96932857D01*
X133770714Y-96837619D01*
X133770714Y-96694761D01*
X133818333Y-96599523D01*
X134389761Y-95742380D02*
X134437380Y-95837619D01*
X134437380Y-96028095D01*
X134389761Y-96123333D01*
X134294523Y-96170952D01*
X133913571Y-96170952D01*
X133818333Y-96123333D01*
X133770714Y-96028095D01*
X133770714Y-95837619D01*
X133818333Y-95742380D01*
X133913571Y-95694761D01*
X134008809Y-95694761D01*
X134104047Y-96170952D01*
X134437380Y-95123333D02*
X134389761Y-95218571D01*
X134294523Y-95266190D01*
X133437380Y-95266190D01*
X134389761Y-94361428D02*
X134437380Y-94456666D01*
X134437380Y-94647142D01*
X134389761Y-94742380D01*
X134294523Y-94790000D01*
X133913571Y-94790000D01*
X133818333Y-94742380D01*
X133770714Y-94647142D01*
X133770714Y-94456666D01*
X133818333Y-94361428D01*
X133913571Y-94313809D01*
X134008809Y-94313809D01*
X134104047Y-94790000D01*
X134389761Y-93456666D02*
X134437380Y-93551904D01*
X134437380Y-93742380D01*
X134389761Y-93837619D01*
X134342142Y-93885238D01*
X134246904Y-93932857D01*
X133961190Y-93932857D01*
X133865952Y-93885238D01*
X133818333Y-93837619D01*
X133770714Y-93742380D01*
X133770714Y-93551904D01*
X133818333Y-93456666D01*
X133770714Y-93170952D02*
X133770714Y-92790000D01*
X133437380Y-93028095D02*
X134294523Y-93028095D01*
X134389761Y-92980476D01*
X134437380Y-92885238D01*
X134437380Y-92790000D01*
X122502142Y-116139166D02*
X122549761Y-116186785D01*
X122597380Y-116329642D01*
X122597380Y-116424880D01*
X122549761Y-116567738D01*
X122454523Y-116662976D01*
X122359285Y-116710595D01*
X122168809Y-116758214D01*
X122025952Y-116758214D01*
X121835476Y-116710595D01*
X121740238Y-116662976D01*
X121645000Y-116567738D01*
X121597380Y-116424880D01*
X121597380Y-116329642D01*
X121645000Y-116186785D01*
X121692619Y-116139166D01*
X121692619Y-115758214D02*
X121645000Y-115710595D01*
X121597380Y-115615357D01*
X121597380Y-115377261D01*
X121645000Y-115282023D01*
X121692619Y-115234404D01*
X121787857Y-115186785D01*
X121883095Y-115186785D01*
X122025952Y-115234404D01*
X122597380Y-115805833D01*
X122597380Y-115186785D01*
X122502142Y-121219166D02*
X122549761Y-121266785D01*
X122597380Y-121409642D01*
X122597380Y-121504880D01*
X122549761Y-121647738D01*
X122454523Y-121742976D01*
X122359285Y-121790595D01*
X122168809Y-121838214D01*
X122025952Y-121838214D01*
X121835476Y-121790595D01*
X121740238Y-121742976D01*
X121645000Y-121647738D01*
X121597380Y-121504880D01*
X121597380Y-121409642D01*
X121645000Y-121266785D01*
X121692619Y-121219166D01*
X122597380Y-120266785D02*
X122597380Y-120838214D01*
X122597380Y-120552500D02*
X121597380Y-120552500D01*
X121740238Y-120647738D01*
X121835476Y-120742976D01*
X121883095Y-120838214D01*
X123086904Y-109672380D02*
X123086904Y-108672380D01*
X123325000Y-108672380D01*
X123467857Y-108720000D01*
X123563095Y-108815238D01*
X123610714Y-108910476D01*
X123658333Y-109100952D01*
X123658333Y-109243809D01*
X123610714Y-109434285D01*
X123563095Y-109529523D01*
X123467857Y-109624761D01*
X123325000Y-109672380D01*
X123086904Y-109672380D01*
X124610714Y-109672380D02*
X124039285Y-109672380D01*
X124325000Y-109672380D02*
X124325000Y-108672380D01*
X124229761Y-108815238D01*
X124134523Y-108910476D01*
X124039285Y-108958095D01*
X123658333Y-106497380D02*
X123325000Y-106021190D01*
X123086904Y-106497380D02*
X123086904Y-105497380D01*
X123467857Y-105497380D01*
X123563095Y-105545000D01*
X123610714Y-105592619D01*
X123658333Y-105687857D01*
X123658333Y-105830714D01*
X123610714Y-105925952D01*
X123563095Y-105973571D01*
X123467857Y-106021190D01*
X123086904Y-106021190D01*
X124610714Y-106497380D02*
X124039285Y-106497380D01*
X124325000Y-106497380D02*
X124325000Y-105497380D01*
X124229761Y-105640238D01*
X124134523Y-105735476D01*
X124039285Y-105783095D01*
D14*
X126735000Y-115335000D02*
X132745000Y-115335000D01*
X128985000Y-122155000D02*
X132745000Y-122155000D01*
X132745000Y-122155000D02*
X132745000Y-120895000D01*
X132745000Y-115335000D02*
X132745000Y-116595000D01*
X137160000Y-95250000D02*
X135890000Y-95250000D01*
X141290000Y-124730000D02*
X141290000Y-91170000D01*
X135890000Y-95250000D02*
X135890000Y-96520000D01*
X141290000Y-105700000D02*
X150640000Y-105700000D01*
X141290000Y-110200000D02*
X150640000Y-110200000D01*
X150640000Y-91170000D02*
X150640000Y-124730000D01*
X141290000Y-91170000D02*
X150640000Y-91170000D01*
X141290000Y-124730000D02*
X150640000Y-124730000D01*
X125730000Y-98485000D02*
X124400000Y-98485000D01*
X124400000Y-93285000D02*
X132140000Y-93285000D01*
X124400000Y-98485000D02*
X124400000Y-97155000D01*
X124400000Y-95885000D02*
X124400000Y-93285000D01*
X127000000Y-95885000D02*
X124400000Y-95885000D01*
X127000000Y-98485000D02*
X132140000Y-98485000D01*
X127000000Y-98485000D02*
X127000000Y-95885000D01*
X132140000Y-98485000D02*
X132140000Y-93285000D01*
X124560000Y-116233752D02*
X124560000Y-115711248D01*
X123090000Y-116233752D02*
X123090000Y-115711248D01*
X123090000Y-121313752D02*
X123090000Y-120791248D01*
X124560000Y-121313752D02*
X124560000Y-120791248D01*
X127755000Y-108260000D02*
X124895000Y-108260000D01*
X124895000Y-110180000D02*
X127755000Y-110180000D01*
X124895000Y-108260000D02*
X124895000Y-110180000D01*
X126957064Y-105945000D02*
X126502936Y-105945000D01*
X126957064Y-107415000D02*
X126502936Y-107415000D01*
M02*
