G04 #@! TF.GenerationSoftware,KiCad,Pcbnew,(5.0.2)-1*
G04 #@! TF.CreationDate,2019-09-12T21:25:24+02:00*
G04 #@! TF.ProjectId,Jlink_power_supply,4a6c696e-6b5f-4706-9f77-65725f737570,rev?*
G04 #@! TF.SameCoordinates,Original*
G04 #@! TF.FileFunction,Copper,L2,Bot*
G04 #@! TF.FilePolarity,Positive*
%FSLAX46Y46*%
G04 Gerber Fmt 4.6, Leading zero omitted, Abs format (unit mm)*
G04 Created by KiCad (PCBNEW (5.0.2)-1) date 2019-09-12 21:25:24*
%MOMM*%
%LPD*%
G01*
G04 APERTURE LIST*
G04 #@! TA.AperFunction,ComponentPad*
%ADD10R,1.700000X1.700000*%
G04 #@! TD*
G04 #@! TA.AperFunction,ComponentPad*
%ADD11O,1.700000X1.700000*%
G04 #@! TD*
G04 #@! TA.AperFunction,ComponentPad*
%ADD12O,1.727200X1.727200*%
G04 #@! TD*
G04 #@! TA.AperFunction,ComponentPad*
%ADD13R,1.727200X1.727200*%
G04 #@! TD*
G04 #@! TA.AperFunction,ViaPad*
%ADD14C,0.800000*%
G04 #@! TD*
G04 #@! TA.AperFunction,Conductor*
%ADD15C,0.250000*%
G04 #@! TD*
G04 #@! TA.AperFunction,Conductor*
%ADD16C,0.254000*%
G04 #@! TD*
G04 APERTURE END LIST*
D10*
G04 #@! TO.P,J1,1*
G04 #@! TO.N,GND*
X119380000Y-119380000D03*
D11*
G04 #@! TO.P,J1,2*
G04 #@! TO.N,+5V*
X116840000Y-119380000D03*
G04 #@! TO.P,J1,3*
G04 #@! TO.N,GND*
X119380000Y-116840000D03*
G04 #@! TO.P,J1,4*
G04 #@! TO.N,Net-(J1-Pad4)*
X116840000Y-116840000D03*
G04 #@! TO.P,J1,5*
G04 #@! TO.N,GND*
X119380000Y-114300000D03*
G04 #@! TO.P,J1,6*
G04 #@! TO.N,Reset*
X116840000Y-114300000D03*
G04 #@! TO.P,J1,7*
G04 #@! TO.N,GND*
X119380000Y-111760000D03*
G04 #@! TO.P,J1,8*
G04 #@! TO.N,SWO*
X116840000Y-111760000D03*
G04 #@! TO.P,J1,9*
G04 #@! TO.N,GND*
X119380000Y-109220000D03*
G04 #@! TO.P,J1,10*
G04 #@! TO.N,Net-(J1-Pad10)*
X116840000Y-109220000D03*
G04 #@! TO.P,J1,11*
G04 #@! TO.N,GND*
X119380000Y-106680000D03*
G04 #@! TO.P,J1,12*
G04 #@! TO.N,SWCLK*
X116840000Y-106680000D03*
G04 #@! TO.P,J1,13*
G04 #@! TO.N,GND*
X119380000Y-104140000D03*
G04 #@! TO.P,J1,14*
G04 #@! TO.N,SWDIO*
X116840000Y-104140000D03*
G04 #@! TO.P,J1,15*
G04 #@! TO.N,GND*
X119380000Y-101600000D03*
G04 #@! TO.P,J1,16*
G04 #@! TO.N,Net-(J1-Pad16)*
X116840000Y-101600000D03*
G04 #@! TO.P,J1,17*
G04 #@! TO.N,GND*
X119380000Y-99060000D03*
G04 #@! TO.P,J1,18*
G04 #@! TO.N,Net-(J1-Pad18)*
X116840000Y-99060000D03*
G04 #@! TO.P,J1,19*
G04 #@! TO.N,Net-(J1-Pad19)*
X119380000Y-96520000D03*
G04 #@! TO.P,J1,20*
G04 #@! TO.N,Vref*
X116840000Y-96520000D03*
G04 #@! TD*
D12*
G04 #@! TO.P,J3,20*
G04 #@! TO.N,GND*
X139700000Y-119380000D03*
G04 #@! TO.P,J3,19*
G04 #@! TO.N,Net-(J3-Pad19)*
X137160000Y-119380000D03*
G04 #@! TO.P,J3,18*
G04 #@! TO.N,GND*
X139700000Y-116840000D03*
G04 #@! TO.P,J3,17*
G04 #@! TO.N,Net-(J3-Pad17)*
X137160000Y-116840000D03*
G04 #@! TO.P,J3,16*
G04 #@! TO.N,GND*
X139700000Y-114300000D03*
G04 #@! TO.P,J3,15*
G04 #@! TO.N,Reset*
X137160000Y-114300000D03*
G04 #@! TO.P,J3,14*
G04 #@! TO.N,GND*
X139700000Y-111760000D03*
G04 #@! TO.P,J3,13*
G04 #@! TO.N,SWO*
X137160000Y-111760000D03*
G04 #@! TO.P,J3,12*
G04 #@! TO.N,GND*
X139700000Y-109220000D03*
G04 #@! TO.P,J3,11*
G04 #@! TO.N,Net-(J3-Pad11)*
X137160000Y-109220000D03*
G04 #@! TO.P,J3,10*
G04 #@! TO.N,GND*
X139700000Y-106680000D03*
G04 #@! TO.P,J3,9*
G04 #@! TO.N,SWCLK*
X137160000Y-106680000D03*
G04 #@! TO.P,J3,8*
G04 #@! TO.N,GND*
X139700000Y-104140000D03*
G04 #@! TO.P,J3,7*
G04 #@! TO.N,SWDIO*
X137160000Y-104140000D03*
G04 #@! TO.P,J3,6*
G04 #@! TO.N,GND*
X139700000Y-101600000D03*
G04 #@! TO.P,J3,5*
G04 #@! TO.N,Net-(J3-Pad5)*
X137160000Y-101600000D03*
G04 #@! TO.P,J3,4*
G04 #@! TO.N,GND*
X139700000Y-99060000D03*
G04 #@! TO.P,J3,3*
G04 #@! TO.N,Net-(J3-Pad3)*
X137160000Y-99060000D03*
G04 #@! TO.P,J3,2*
G04 #@! TO.N,Net-(J3-Pad2)*
X139700000Y-96520000D03*
D13*
G04 #@! TO.P,J3,1*
G04 #@! TO.N,Vref*
X137160000Y-96520000D03*
G04 #@! TD*
D10*
G04 #@! TO.P,J2,1*
G04 #@! TO.N,+5V*
X125730000Y-97155000D03*
D11*
G04 #@! TO.P,J2,2*
G04 #@! TO.N,Vref*
X125730000Y-94615000D03*
G04 #@! TO.P,J2,3*
G04 #@! TO.N,Net-(J2-Pad3)*
X128270000Y-97155000D03*
G04 #@! TO.P,J2,4*
G04 #@! TO.N,Vref*
X128270000Y-94615000D03*
G04 #@! TO.P,J2,5*
G04 #@! TO.N,+3V3*
X130810000Y-97155000D03*
G04 #@! TO.P,J2,6*
G04 #@! TO.N,Vref*
X130810000Y-94615000D03*
G04 #@! TD*
D14*
G04 #@! TO.N,GND*
X128270000Y-116840000D03*
G04 #@! TD*
D15*
G04 #@! TO.N,SWDIO*
X136296401Y-103276401D02*
X137160000Y-104140000D01*
X135984999Y-102964999D02*
X136296401Y-103276401D01*
X118015001Y-102964999D02*
X135984999Y-102964999D01*
X116840000Y-104140000D02*
X118015001Y-102964999D01*
G04 #@! TO.N,SWCLK*
X136296401Y-105816401D02*
X137160000Y-106680000D01*
X135984999Y-105504999D02*
X136296401Y-105816401D01*
X118015001Y-105504999D02*
X135984999Y-105504999D01*
X116840000Y-106680000D02*
X118015001Y-105504999D01*
G04 #@! TO.N,SWO*
X136296401Y-110896401D02*
X137160000Y-111760000D01*
X135890000Y-110490000D02*
X136296401Y-110896401D01*
X118110000Y-110490000D02*
X135890000Y-110490000D01*
X116840000Y-111760000D02*
X118110000Y-110490000D01*
G04 #@! TO.N,Reset*
X136296401Y-113436401D02*
X137160000Y-114300000D01*
X135795001Y-112935001D02*
X136296401Y-113436401D01*
X118204999Y-112935001D02*
X135795001Y-112935001D01*
X116840000Y-114300000D02*
X118204999Y-112935001D01*
G04 #@! TD*
D16*
G04 #@! TO.N,GND*
G36*
X143460001Y-123775000D02*
X113715000Y-123775000D01*
X113715000Y-109287461D01*
X113728419Y-109220000D01*
X113675255Y-108952727D01*
X113523857Y-108726143D01*
X113297273Y-108574745D01*
X113097462Y-108535000D01*
X113030000Y-108521581D01*
X112962539Y-108535000D01*
X108635000Y-108535000D01*
X108635000Y-107365000D01*
X112962538Y-107365000D01*
X113030000Y-107378419D01*
X113097461Y-107365000D01*
X113097462Y-107365000D01*
X113297273Y-107325255D01*
X113523857Y-107173857D01*
X113675255Y-106947273D01*
X113728419Y-106680000D01*
X113715000Y-106612538D01*
X113715000Y-96520000D01*
X115325908Y-96520000D01*
X115441161Y-97099418D01*
X115769375Y-97590625D01*
X116067761Y-97790000D01*
X115769375Y-97989375D01*
X115441161Y-98480582D01*
X115325908Y-99060000D01*
X115441161Y-99639418D01*
X115769375Y-100130625D01*
X116067761Y-100330000D01*
X115769375Y-100529375D01*
X115441161Y-101020582D01*
X115325908Y-101600000D01*
X115441161Y-102179418D01*
X115769375Y-102670625D01*
X116067761Y-102870000D01*
X115769375Y-103069375D01*
X115441161Y-103560582D01*
X115325908Y-104140000D01*
X115441161Y-104719418D01*
X115769375Y-105210625D01*
X116067761Y-105410000D01*
X115769375Y-105609375D01*
X115441161Y-106100582D01*
X115325908Y-106680000D01*
X115441161Y-107259418D01*
X115769375Y-107750625D01*
X116067761Y-107950000D01*
X115769375Y-108149375D01*
X115441161Y-108640582D01*
X115325908Y-109220000D01*
X115441161Y-109799418D01*
X115769375Y-110290625D01*
X116067761Y-110490000D01*
X115769375Y-110689375D01*
X115441161Y-111180582D01*
X115325908Y-111760000D01*
X115441161Y-112339418D01*
X115769375Y-112830625D01*
X116067761Y-113030000D01*
X115769375Y-113229375D01*
X115441161Y-113720582D01*
X115325908Y-114300000D01*
X115441161Y-114879418D01*
X115769375Y-115370625D01*
X116067761Y-115570000D01*
X115769375Y-115769375D01*
X115441161Y-116260582D01*
X115325908Y-116840000D01*
X115441161Y-117419418D01*
X115769375Y-117910625D01*
X116067761Y-118110000D01*
X115769375Y-118309375D01*
X115441161Y-118800582D01*
X115325908Y-119380000D01*
X115441161Y-119959418D01*
X115769375Y-120450625D01*
X116260582Y-120778839D01*
X116693744Y-120865000D01*
X116986256Y-120865000D01*
X117419418Y-120778839D01*
X117910625Y-120450625D01*
X117925096Y-120428968D01*
X117991673Y-120589699D01*
X118170302Y-120768327D01*
X118403691Y-120865000D01*
X119094250Y-120865000D01*
X119253000Y-120706250D01*
X119253000Y-119507000D01*
X119507000Y-119507000D01*
X119507000Y-120706250D01*
X119665750Y-120865000D01*
X120356309Y-120865000D01*
X120589698Y-120768327D01*
X120768327Y-120589699D01*
X120865000Y-120356310D01*
X120865000Y-119665750D01*
X120706250Y-119507000D01*
X119507000Y-119507000D01*
X119253000Y-119507000D01*
X119233000Y-119507000D01*
X119233000Y-119253000D01*
X119253000Y-119253000D01*
X119253000Y-116967000D01*
X119507000Y-116967000D01*
X119507000Y-119253000D01*
X120706250Y-119253000D01*
X120865000Y-119094250D01*
X120865000Y-118403690D01*
X120768327Y-118170301D01*
X120589698Y-117991673D01*
X120380122Y-117904864D01*
X120651645Y-117606924D01*
X120821476Y-117196890D01*
X120700155Y-116967000D01*
X119507000Y-116967000D01*
X119253000Y-116967000D01*
X119233000Y-116967000D01*
X119233000Y-116713000D01*
X119253000Y-116713000D01*
X119253000Y-114427000D01*
X119507000Y-114427000D01*
X119507000Y-116713000D01*
X120700155Y-116713000D01*
X120821476Y-116483110D01*
X120651645Y-116073076D01*
X120261358Y-115644817D01*
X120102046Y-115570000D01*
X120261358Y-115495183D01*
X120651645Y-115066924D01*
X120821476Y-114656890D01*
X120700155Y-114427000D01*
X119507000Y-114427000D01*
X119253000Y-114427000D01*
X119233000Y-114427000D01*
X119233000Y-114173000D01*
X119253000Y-114173000D01*
X119253000Y-114153000D01*
X119507000Y-114153000D01*
X119507000Y-114173000D01*
X120700155Y-114173000D01*
X120821476Y-113943110D01*
X120718712Y-113695001D01*
X135480200Y-113695001D01*
X135707225Y-113922026D01*
X135632041Y-114300000D01*
X135748350Y-114884725D01*
X136079570Y-115380430D01*
X136363281Y-115570000D01*
X136079570Y-115759570D01*
X135748350Y-116255275D01*
X135632041Y-116840000D01*
X135748350Y-117424725D01*
X136079570Y-117920430D01*
X136363281Y-118110000D01*
X136079570Y-118299570D01*
X135748350Y-118795275D01*
X135632041Y-119380000D01*
X135748350Y-119964725D01*
X136079570Y-120460430D01*
X136575275Y-120791650D01*
X137012402Y-120878600D01*
X137307598Y-120878600D01*
X137744725Y-120791650D01*
X138240430Y-120460430D01*
X138433037Y-120172174D01*
X138811510Y-120586821D01*
X139340973Y-120834968D01*
X139573000Y-120714469D01*
X139573000Y-119507000D01*
X139827000Y-119507000D01*
X139827000Y-120714469D01*
X140059027Y-120834968D01*
X140588490Y-120586821D01*
X140982688Y-120154947D01*
X141154958Y-119739026D01*
X141033817Y-119507000D01*
X139827000Y-119507000D01*
X139573000Y-119507000D01*
X139553000Y-119507000D01*
X139553000Y-119253000D01*
X139573000Y-119253000D01*
X139573000Y-116967000D01*
X139827000Y-116967000D01*
X139827000Y-119253000D01*
X141033817Y-119253000D01*
X141154958Y-119020974D01*
X140982688Y-118605053D01*
X140588490Y-118173179D01*
X140453687Y-118110000D01*
X140588490Y-118046821D01*
X140982688Y-117614947D01*
X141154958Y-117199026D01*
X141033817Y-116967000D01*
X139827000Y-116967000D01*
X139573000Y-116967000D01*
X139553000Y-116967000D01*
X139553000Y-116713000D01*
X139573000Y-116713000D01*
X139573000Y-114427000D01*
X139827000Y-114427000D01*
X139827000Y-116713000D01*
X141033817Y-116713000D01*
X141154958Y-116480974D01*
X140982688Y-116065053D01*
X140588490Y-115633179D01*
X140453687Y-115570000D01*
X140588490Y-115506821D01*
X140982688Y-115074947D01*
X141154958Y-114659026D01*
X141033817Y-114427000D01*
X139827000Y-114427000D01*
X139573000Y-114427000D01*
X139553000Y-114427000D01*
X139553000Y-114173000D01*
X139573000Y-114173000D01*
X139573000Y-111887000D01*
X139827000Y-111887000D01*
X139827000Y-114173000D01*
X141033817Y-114173000D01*
X141154958Y-113940974D01*
X140982688Y-113525053D01*
X140588490Y-113093179D01*
X140453687Y-113030000D01*
X140588490Y-112966821D01*
X140982688Y-112534947D01*
X141154958Y-112119026D01*
X141033817Y-111887000D01*
X139827000Y-111887000D01*
X139573000Y-111887000D01*
X139553000Y-111887000D01*
X139553000Y-111633000D01*
X139573000Y-111633000D01*
X139573000Y-109347000D01*
X139827000Y-109347000D01*
X139827000Y-111633000D01*
X141033817Y-111633000D01*
X141154958Y-111400974D01*
X140982688Y-110985053D01*
X140588490Y-110553179D01*
X140453687Y-110490000D01*
X140588490Y-110426821D01*
X140982688Y-109994947D01*
X141154958Y-109579026D01*
X141033817Y-109347000D01*
X139827000Y-109347000D01*
X139573000Y-109347000D01*
X139553000Y-109347000D01*
X139553000Y-109093000D01*
X139573000Y-109093000D01*
X139573000Y-106807000D01*
X139827000Y-106807000D01*
X139827000Y-109093000D01*
X141033817Y-109093000D01*
X141154958Y-108860974D01*
X140982688Y-108445053D01*
X140588490Y-108013179D01*
X140453687Y-107950000D01*
X140588490Y-107886821D01*
X140982688Y-107454947D01*
X141154958Y-107039026D01*
X141033817Y-106807000D01*
X139827000Y-106807000D01*
X139573000Y-106807000D01*
X139553000Y-106807000D01*
X139553000Y-106553000D01*
X139573000Y-106553000D01*
X139573000Y-104267000D01*
X139827000Y-104267000D01*
X139827000Y-106553000D01*
X141033817Y-106553000D01*
X141154958Y-106320974D01*
X140982688Y-105905053D01*
X140588490Y-105473179D01*
X140453687Y-105410000D01*
X140588490Y-105346821D01*
X140982688Y-104914947D01*
X141154958Y-104499026D01*
X141033817Y-104267000D01*
X139827000Y-104267000D01*
X139573000Y-104267000D01*
X139553000Y-104267000D01*
X139553000Y-104013000D01*
X139573000Y-104013000D01*
X139573000Y-101727000D01*
X139827000Y-101727000D01*
X139827000Y-104013000D01*
X141033817Y-104013000D01*
X141154958Y-103780974D01*
X140982688Y-103365053D01*
X140588490Y-102933179D01*
X140453687Y-102870000D01*
X140588490Y-102806821D01*
X140982688Y-102374947D01*
X141154958Y-101959026D01*
X141033817Y-101727000D01*
X139827000Y-101727000D01*
X139573000Y-101727000D01*
X139553000Y-101727000D01*
X139553000Y-101473000D01*
X139573000Y-101473000D01*
X139573000Y-99187000D01*
X139827000Y-99187000D01*
X139827000Y-101473000D01*
X141033817Y-101473000D01*
X141154958Y-101240974D01*
X140982688Y-100825053D01*
X140588490Y-100393179D01*
X140453687Y-100330000D01*
X140588490Y-100266821D01*
X140982688Y-99834947D01*
X141154958Y-99419026D01*
X141033817Y-99187000D01*
X139827000Y-99187000D01*
X139573000Y-99187000D01*
X139553000Y-99187000D01*
X139553000Y-98933000D01*
X139573000Y-98933000D01*
X139573000Y-98913000D01*
X139827000Y-98913000D01*
X139827000Y-98933000D01*
X141033817Y-98933000D01*
X141154958Y-98700974D01*
X140982688Y-98285053D01*
X140588490Y-97853179D01*
X140478979Y-97801854D01*
X140780430Y-97600430D01*
X141111650Y-97104725D01*
X141227959Y-96520000D01*
X141111650Y-95935275D01*
X140780430Y-95439570D01*
X140284725Y-95108350D01*
X139847598Y-95021400D01*
X139552402Y-95021400D01*
X139115275Y-95108350D01*
X138626932Y-95434651D01*
X138621757Y-95408635D01*
X138481409Y-95198591D01*
X138271365Y-95058243D01*
X138023600Y-95008960D01*
X136296400Y-95008960D01*
X136048635Y-95058243D01*
X135838591Y-95198591D01*
X135698243Y-95408635D01*
X135648960Y-95656400D01*
X135648960Y-97383600D01*
X135698243Y-97631365D01*
X135838591Y-97841409D01*
X136048635Y-97981757D01*
X136074651Y-97986932D01*
X135748350Y-98475275D01*
X135632041Y-99060000D01*
X135748350Y-99644725D01*
X136079570Y-100140430D01*
X136363281Y-100330000D01*
X136079570Y-100519570D01*
X135748350Y-101015275D01*
X135632041Y-101600000D01*
X135748350Y-102184725D01*
X135761897Y-102204999D01*
X120718712Y-102204999D01*
X120821476Y-101956890D01*
X120700155Y-101727000D01*
X119507000Y-101727000D01*
X119507000Y-101747000D01*
X119253000Y-101747000D01*
X119253000Y-101727000D01*
X119233000Y-101727000D01*
X119233000Y-101473000D01*
X119253000Y-101473000D01*
X119253000Y-99187000D01*
X119507000Y-99187000D01*
X119507000Y-101473000D01*
X120700155Y-101473000D01*
X120821476Y-101243110D01*
X120651645Y-100833076D01*
X120261358Y-100404817D01*
X120102046Y-100330000D01*
X120261358Y-100255183D01*
X120651645Y-99826924D01*
X120821476Y-99416890D01*
X120700155Y-99187000D01*
X119507000Y-99187000D01*
X119253000Y-99187000D01*
X119233000Y-99187000D01*
X119233000Y-98933000D01*
X119253000Y-98933000D01*
X119253000Y-98913000D01*
X119507000Y-98913000D01*
X119507000Y-98933000D01*
X120700155Y-98933000D01*
X120821476Y-98703110D01*
X120651645Y-98293076D01*
X120261358Y-97864817D01*
X120131522Y-97803843D01*
X120450625Y-97590625D01*
X120778839Y-97099418D01*
X120894092Y-96520000D01*
X120778839Y-95940582D01*
X120450625Y-95449375D01*
X119959418Y-95121161D01*
X119526256Y-95035000D01*
X119233744Y-95035000D01*
X118800582Y-95121161D01*
X118309375Y-95449375D01*
X118110000Y-95747761D01*
X117910625Y-95449375D01*
X117419418Y-95121161D01*
X116986256Y-95035000D01*
X116693744Y-95035000D01*
X116260582Y-95121161D01*
X115769375Y-95449375D01*
X115441161Y-95940582D01*
X115325908Y-96520000D01*
X113715000Y-96520000D01*
X113715000Y-94615000D01*
X124215908Y-94615000D01*
X124331161Y-95194418D01*
X124659375Y-95685625D01*
X124677619Y-95697816D01*
X124632235Y-95706843D01*
X124422191Y-95847191D01*
X124281843Y-96057235D01*
X124232560Y-96305000D01*
X124232560Y-98005000D01*
X124281843Y-98252765D01*
X124422191Y-98462809D01*
X124632235Y-98603157D01*
X124880000Y-98652440D01*
X126580000Y-98652440D01*
X126827765Y-98603157D01*
X127037809Y-98462809D01*
X127178157Y-98252765D01*
X127187184Y-98207381D01*
X127199375Y-98225625D01*
X127690582Y-98553839D01*
X128123744Y-98640000D01*
X128416256Y-98640000D01*
X128849418Y-98553839D01*
X129340625Y-98225625D01*
X129540000Y-97927239D01*
X129739375Y-98225625D01*
X130230582Y-98553839D01*
X130663744Y-98640000D01*
X130956256Y-98640000D01*
X131389418Y-98553839D01*
X131880625Y-98225625D01*
X132208839Y-97734418D01*
X132324092Y-97155000D01*
X132208839Y-96575582D01*
X131880625Y-96084375D01*
X131582239Y-95885000D01*
X131880625Y-95685625D01*
X132208839Y-95194418D01*
X132324092Y-94615000D01*
X132208839Y-94035582D01*
X131880625Y-93544375D01*
X131389418Y-93216161D01*
X130956256Y-93130000D01*
X130663744Y-93130000D01*
X130230582Y-93216161D01*
X129739375Y-93544375D01*
X129540000Y-93842761D01*
X129340625Y-93544375D01*
X128849418Y-93216161D01*
X128416256Y-93130000D01*
X128123744Y-93130000D01*
X127690582Y-93216161D01*
X127199375Y-93544375D01*
X127000000Y-93842761D01*
X126800625Y-93544375D01*
X126309418Y-93216161D01*
X125876256Y-93130000D01*
X125583744Y-93130000D01*
X125150582Y-93216161D01*
X124659375Y-93544375D01*
X124331161Y-94035582D01*
X124215908Y-94615000D01*
X113715000Y-94615000D01*
X113715000Y-92125000D01*
X143460000Y-92125000D01*
X143460001Y-123775000D01*
X143460001Y-123775000D01*
G37*
X143460001Y-123775000D02*
X113715000Y-123775000D01*
X113715000Y-109287461D01*
X113728419Y-109220000D01*
X113675255Y-108952727D01*
X113523857Y-108726143D01*
X113297273Y-108574745D01*
X113097462Y-108535000D01*
X113030000Y-108521581D01*
X112962539Y-108535000D01*
X108635000Y-108535000D01*
X108635000Y-107365000D01*
X112962538Y-107365000D01*
X113030000Y-107378419D01*
X113097461Y-107365000D01*
X113097462Y-107365000D01*
X113297273Y-107325255D01*
X113523857Y-107173857D01*
X113675255Y-106947273D01*
X113728419Y-106680000D01*
X113715000Y-106612538D01*
X113715000Y-96520000D01*
X115325908Y-96520000D01*
X115441161Y-97099418D01*
X115769375Y-97590625D01*
X116067761Y-97790000D01*
X115769375Y-97989375D01*
X115441161Y-98480582D01*
X115325908Y-99060000D01*
X115441161Y-99639418D01*
X115769375Y-100130625D01*
X116067761Y-100330000D01*
X115769375Y-100529375D01*
X115441161Y-101020582D01*
X115325908Y-101600000D01*
X115441161Y-102179418D01*
X115769375Y-102670625D01*
X116067761Y-102870000D01*
X115769375Y-103069375D01*
X115441161Y-103560582D01*
X115325908Y-104140000D01*
X115441161Y-104719418D01*
X115769375Y-105210625D01*
X116067761Y-105410000D01*
X115769375Y-105609375D01*
X115441161Y-106100582D01*
X115325908Y-106680000D01*
X115441161Y-107259418D01*
X115769375Y-107750625D01*
X116067761Y-107950000D01*
X115769375Y-108149375D01*
X115441161Y-108640582D01*
X115325908Y-109220000D01*
X115441161Y-109799418D01*
X115769375Y-110290625D01*
X116067761Y-110490000D01*
X115769375Y-110689375D01*
X115441161Y-111180582D01*
X115325908Y-111760000D01*
X115441161Y-112339418D01*
X115769375Y-112830625D01*
X116067761Y-113030000D01*
X115769375Y-113229375D01*
X115441161Y-113720582D01*
X115325908Y-114300000D01*
X115441161Y-114879418D01*
X115769375Y-115370625D01*
X116067761Y-115570000D01*
X115769375Y-115769375D01*
X115441161Y-116260582D01*
X115325908Y-116840000D01*
X115441161Y-117419418D01*
X115769375Y-117910625D01*
X116067761Y-118110000D01*
X115769375Y-118309375D01*
X115441161Y-118800582D01*
X115325908Y-119380000D01*
X115441161Y-119959418D01*
X115769375Y-120450625D01*
X116260582Y-120778839D01*
X116693744Y-120865000D01*
X116986256Y-120865000D01*
X117419418Y-120778839D01*
X117910625Y-120450625D01*
X117925096Y-120428968D01*
X117991673Y-120589699D01*
X118170302Y-120768327D01*
X118403691Y-120865000D01*
X119094250Y-120865000D01*
X119253000Y-120706250D01*
X119253000Y-119507000D01*
X119507000Y-119507000D01*
X119507000Y-120706250D01*
X119665750Y-120865000D01*
X120356309Y-120865000D01*
X120589698Y-120768327D01*
X120768327Y-120589699D01*
X120865000Y-120356310D01*
X120865000Y-119665750D01*
X120706250Y-119507000D01*
X119507000Y-119507000D01*
X119253000Y-119507000D01*
X119233000Y-119507000D01*
X119233000Y-119253000D01*
X119253000Y-119253000D01*
X119253000Y-116967000D01*
X119507000Y-116967000D01*
X119507000Y-119253000D01*
X120706250Y-119253000D01*
X120865000Y-119094250D01*
X120865000Y-118403690D01*
X120768327Y-118170301D01*
X120589698Y-117991673D01*
X120380122Y-117904864D01*
X120651645Y-117606924D01*
X120821476Y-117196890D01*
X120700155Y-116967000D01*
X119507000Y-116967000D01*
X119253000Y-116967000D01*
X119233000Y-116967000D01*
X119233000Y-116713000D01*
X119253000Y-116713000D01*
X119253000Y-114427000D01*
X119507000Y-114427000D01*
X119507000Y-116713000D01*
X120700155Y-116713000D01*
X120821476Y-116483110D01*
X120651645Y-116073076D01*
X120261358Y-115644817D01*
X120102046Y-115570000D01*
X120261358Y-115495183D01*
X120651645Y-115066924D01*
X120821476Y-114656890D01*
X120700155Y-114427000D01*
X119507000Y-114427000D01*
X119253000Y-114427000D01*
X119233000Y-114427000D01*
X119233000Y-114173000D01*
X119253000Y-114173000D01*
X119253000Y-114153000D01*
X119507000Y-114153000D01*
X119507000Y-114173000D01*
X120700155Y-114173000D01*
X120821476Y-113943110D01*
X120718712Y-113695001D01*
X135480200Y-113695001D01*
X135707225Y-113922026D01*
X135632041Y-114300000D01*
X135748350Y-114884725D01*
X136079570Y-115380430D01*
X136363281Y-115570000D01*
X136079570Y-115759570D01*
X135748350Y-116255275D01*
X135632041Y-116840000D01*
X135748350Y-117424725D01*
X136079570Y-117920430D01*
X136363281Y-118110000D01*
X136079570Y-118299570D01*
X135748350Y-118795275D01*
X135632041Y-119380000D01*
X135748350Y-119964725D01*
X136079570Y-120460430D01*
X136575275Y-120791650D01*
X137012402Y-120878600D01*
X137307598Y-120878600D01*
X137744725Y-120791650D01*
X138240430Y-120460430D01*
X138433037Y-120172174D01*
X138811510Y-120586821D01*
X139340973Y-120834968D01*
X139573000Y-120714469D01*
X139573000Y-119507000D01*
X139827000Y-119507000D01*
X139827000Y-120714469D01*
X140059027Y-120834968D01*
X140588490Y-120586821D01*
X140982688Y-120154947D01*
X141154958Y-119739026D01*
X141033817Y-119507000D01*
X139827000Y-119507000D01*
X139573000Y-119507000D01*
X139553000Y-119507000D01*
X139553000Y-119253000D01*
X139573000Y-119253000D01*
X139573000Y-116967000D01*
X139827000Y-116967000D01*
X139827000Y-119253000D01*
X141033817Y-119253000D01*
X141154958Y-119020974D01*
X140982688Y-118605053D01*
X140588490Y-118173179D01*
X140453687Y-118110000D01*
X140588490Y-118046821D01*
X140982688Y-117614947D01*
X141154958Y-117199026D01*
X141033817Y-116967000D01*
X139827000Y-116967000D01*
X139573000Y-116967000D01*
X139553000Y-116967000D01*
X139553000Y-116713000D01*
X139573000Y-116713000D01*
X139573000Y-114427000D01*
X139827000Y-114427000D01*
X139827000Y-116713000D01*
X141033817Y-116713000D01*
X141154958Y-116480974D01*
X140982688Y-116065053D01*
X140588490Y-115633179D01*
X140453687Y-115570000D01*
X140588490Y-115506821D01*
X140982688Y-115074947D01*
X141154958Y-114659026D01*
X141033817Y-114427000D01*
X139827000Y-114427000D01*
X139573000Y-114427000D01*
X139553000Y-114427000D01*
X139553000Y-114173000D01*
X139573000Y-114173000D01*
X139573000Y-111887000D01*
X139827000Y-111887000D01*
X139827000Y-114173000D01*
X141033817Y-114173000D01*
X141154958Y-113940974D01*
X140982688Y-113525053D01*
X140588490Y-113093179D01*
X140453687Y-113030000D01*
X140588490Y-112966821D01*
X140982688Y-112534947D01*
X141154958Y-112119026D01*
X141033817Y-111887000D01*
X139827000Y-111887000D01*
X139573000Y-111887000D01*
X139553000Y-111887000D01*
X139553000Y-111633000D01*
X139573000Y-111633000D01*
X139573000Y-109347000D01*
X139827000Y-109347000D01*
X139827000Y-111633000D01*
X141033817Y-111633000D01*
X141154958Y-111400974D01*
X140982688Y-110985053D01*
X140588490Y-110553179D01*
X140453687Y-110490000D01*
X140588490Y-110426821D01*
X140982688Y-109994947D01*
X141154958Y-109579026D01*
X141033817Y-109347000D01*
X139827000Y-109347000D01*
X139573000Y-109347000D01*
X139553000Y-109347000D01*
X139553000Y-109093000D01*
X139573000Y-109093000D01*
X139573000Y-106807000D01*
X139827000Y-106807000D01*
X139827000Y-109093000D01*
X141033817Y-109093000D01*
X141154958Y-108860974D01*
X140982688Y-108445053D01*
X140588490Y-108013179D01*
X140453687Y-107950000D01*
X140588490Y-107886821D01*
X140982688Y-107454947D01*
X141154958Y-107039026D01*
X141033817Y-106807000D01*
X139827000Y-106807000D01*
X139573000Y-106807000D01*
X139553000Y-106807000D01*
X139553000Y-106553000D01*
X139573000Y-106553000D01*
X139573000Y-104267000D01*
X139827000Y-104267000D01*
X139827000Y-106553000D01*
X141033817Y-106553000D01*
X141154958Y-106320974D01*
X140982688Y-105905053D01*
X140588490Y-105473179D01*
X140453687Y-105410000D01*
X140588490Y-105346821D01*
X140982688Y-104914947D01*
X141154958Y-104499026D01*
X141033817Y-104267000D01*
X139827000Y-104267000D01*
X139573000Y-104267000D01*
X139553000Y-104267000D01*
X139553000Y-104013000D01*
X139573000Y-104013000D01*
X139573000Y-101727000D01*
X139827000Y-101727000D01*
X139827000Y-104013000D01*
X141033817Y-104013000D01*
X141154958Y-103780974D01*
X140982688Y-103365053D01*
X140588490Y-102933179D01*
X140453687Y-102870000D01*
X140588490Y-102806821D01*
X140982688Y-102374947D01*
X141154958Y-101959026D01*
X141033817Y-101727000D01*
X139827000Y-101727000D01*
X139573000Y-101727000D01*
X139553000Y-101727000D01*
X139553000Y-101473000D01*
X139573000Y-101473000D01*
X139573000Y-99187000D01*
X139827000Y-99187000D01*
X139827000Y-101473000D01*
X141033817Y-101473000D01*
X141154958Y-101240974D01*
X140982688Y-100825053D01*
X140588490Y-100393179D01*
X140453687Y-100330000D01*
X140588490Y-100266821D01*
X140982688Y-99834947D01*
X141154958Y-99419026D01*
X141033817Y-99187000D01*
X139827000Y-99187000D01*
X139573000Y-99187000D01*
X139553000Y-99187000D01*
X139553000Y-98933000D01*
X139573000Y-98933000D01*
X139573000Y-98913000D01*
X139827000Y-98913000D01*
X139827000Y-98933000D01*
X141033817Y-98933000D01*
X141154958Y-98700974D01*
X140982688Y-98285053D01*
X140588490Y-97853179D01*
X140478979Y-97801854D01*
X140780430Y-97600430D01*
X141111650Y-97104725D01*
X141227959Y-96520000D01*
X141111650Y-95935275D01*
X140780430Y-95439570D01*
X140284725Y-95108350D01*
X139847598Y-95021400D01*
X139552402Y-95021400D01*
X139115275Y-95108350D01*
X138626932Y-95434651D01*
X138621757Y-95408635D01*
X138481409Y-95198591D01*
X138271365Y-95058243D01*
X138023600Y-95008960D01*
X136296400Y-95008960D01*
X136048635Y-95058243D01*
X135838591Y-95198591D01*
X135698243Y-95408635D01*
X135648960Y-95656400D01*
X135648960Y-97383600D01*
X135698243Y-97631365D01*
X135838591Y-97841409D01*
X136048635Y-97981757D01*
X136074651Y-97986932D01*
X135748350Y-98475275D01*
X135632041Y-99060000D01*
X135748350Y-99644725D01*
X136079570Y-100140430D01*
X136363281Y-100330000D01*
X136079570Y-100519570D01*
X135748350Y-101015275D01*
X135632041Y-101600000D01*
X135748350Y-102184725D01*
X135761897Y-102204999D01*
X120718712Y-102204999D01*
X120821476Y-101956890D01*
X120700155Y-101727000D01*
X119507000Y-101727000D01*
X119507000Y-101747000D01*
X119253000Y-101747000D01*
X119253000Y-101727000D01*
X119233000Y-101727000D01*
X119233000Y-101473000D01*
X119253000Y-101473000D01*
X119253000Y-99187000D01*
X119507000Y-99187000D01*
X119507000Y-101473000D01*
X120700155Y-101473000D01*
X120821476Y-101243110D01*
X120651645Y-100833076D01*
X120261358Y-100404817D01*
X120102046Y-100330000D01*
X120261358Y-100255183D01*
X120651645Y-99826924D01*
X120821476Y-99416890D01*
X120700155Y-99187000D01*
X119507000Y-99187000D01*
X119253000Y-99187000D01*
X119233000Y-99187000D01*
X119233000Y-98933000D01*
X119253000Y-98933000D01*
X119253000Y-98913000D01*
X119507000Y-98913000D01*
X119507000Y-98933000D01*
X120700155Y-98933000D01*
X120821476Y-98703110D01*
X120651645Y-98293076D01*
X120261358Y-97864817D01*
X120131522Y-97803843D01*
X120450625Y-97590625D01*
X120778839Y-97099418D01*
X120894092Y-96520000D01*
X120778839Y-95940582D01*
X120450625Y-95449375D01*
X119959418Y-95121161D01*
X119526256Y-95035000D01*
X119233744Y-95035000D01*
X118800582Y-95121161D01*
X118309375Y-95449375D01*
X118110000Y-95747761D01*
X117910625Y-95449375D01*
X117419418Y-95121161D01*
X116986256Y-95035000D01*
X116693744Y-95035000D01*
X116260582Y-95121161D01*
X115769375Y-95449375D01*
X115441161Y-95940582D01*
X115325908Y-96520000D01*
X113715000Y-96520000D01*
X113715000Y-94615000D01*
X124215908Y-94615000D01*
X124331161Y-95194418D01*
X124659375Y-95685625D01*
X124677619Y-95697816D01*
X124632235Y-95706843D01*
X124422191Y-95847191D01*
X124281843Y-96057235D01*
X124232560Y-96305000D01*
X124232560Y-98005000D01*
X124281843Y-98252765D01*
X124422191Y-98462809D01*
X124632235Y-98603157D01*
X124880000Y-98652440D01*
X126580000Y-98652440D01*
X126827765Y-98603157D01*
X127037809Y-98462809D01*
X127178157Y-98252765D01*
X127187184Y-98207381D01*
X127199375Y-98225625D01*
X127690582Y-98553839D01*
X128123744Y-98640000D01*
X128416256Y-98640000D01*
X128849418Y-98553839D01*
X129340625Y-98225625D01*
X129540000Y-97927239D01*
X129739375Y-98225625D01*
X130230582Y-98553839D01*
X130663744Y-98640000D01*
X130956256Y-98640000D01*
X131389418Y-98553839D01*
X131880625Y-98225625D01*
X132208839Y-97734418D01*
X132324092Y-97155000D01*
X132208839Y-96575582D01*
X131880625Y-96084375D01*
X131582239Y-95885000D01*
X131880625Y-95685625D01*
X132208839Y-95194418D01*
X132324092Y-94615000D01*
X132208839Y-94035582D01*
X131880625Y-93544375D01*
X131389418Y-93216161D01*
X130956256Y-93130000D01*
X130663744Y-93130000D01*
X130230582Y-93216161D01*
X129739375Y-93544375D01*
X129540000Y-93842761D01*
X129340625Y-93544375D01*
X128849418Y-93216161D01*
X128416256Y-93130000D01*
X128123744Y-93130000D01*
X127690582Y-93216161D01*
X127199375Y-93544375D01*
X127000000Y-93842761D01*
X126800625Y-93544375D01*
X126309418Y-93216161D01*
X125876256Y-93130000D01*
X125583744Y-93130000D01*
X125150582Y-93216161D01*
X124659375Y-93544375D01*
X124331161Y-94035582D01*
X124215908Y-94615000D01*
X113715000Y-94615000D01*
X113715000Y-92125000D01*
X143460000Y-92125000D01*
X143460001Y-123775000D01*
G36*
X135707225Y-111382026D02*
X135632041Y-111760000D01*
X135714590Y-112175001D01*
X120797407Y-112175001D01*
X120821476Y-112116890D01*
X120700155Y-111887000D01*
X119507000Y-111887000D01*
X119507000Y-111907000D01*
X119253000Y-111907000D01*
X119253000Y-111887000D01*
X119233000Y-111887000D01*
X119233000Y-111633000D01*
X119253000Y-111633000D01*
X119253000Y-111613000D01*
X119507000Y-111613000D01*
X119507000Y-111633000D01*
X120700155Y-111633000D01*
X120821476Y-111403110D01*
X120758060Y-111250000D01*
X135575199Y-111250000D01*
X135707225Y-111382026D01*
X135707225Y-111382026D01*
G37*
X135707225Y-111382026D02*
X135632041Y-111760000D01*
X135714590Y-112175001D01*
X120797407Y-112175001D01*
X120821476Y-112116890D01*
X120700155Y-111887000D01*
X119507000Y-111887000D01*
X119507000Y-111907000D01*
X119253000Y-111907000D01*
X119253000Y-111887000D01*
X119233000Y-111887000D01*
X119233000Y-111633000D01*
X119253000Y-111633000D01*
X119253000Y-111613000D01*
X119507000Y-111613000D01*
X119507000Y-111633000D01*
X120700155Y-111633000D01*
X120821476Y-111403110D01*
X120758060Y-111250000D01*
X135575199Y-111250000D01*
X135707225Y-111382026D01*
G36*
X135707225Y-106302026D02*
X135632041Y-106680000D01*
X135748350Y-107264725D01*
X136079570Y-107760430D01*
X136363281Y-107950000D01*
X136079570Y-108139570D01*
X135748350Y-108635275D01*
X135632041Y-109220000D01*
X135733486Y-109730000D01*
X120758060Y-109730000D01*
X120821476Y-109576890D01*
X120700155Y-109347000D01*
X119507000Y-109347000D01*
X119507000Y-109367000D01*
X119253000Y-109367000D01*
X119253000Y-109347000D01*
X119233000Y-109347000D01*
X119233000Y-109093000D01*
X119253000Y-109093000D01*
X119253000Y-106807000D01*
X119507000Y-106807000D01*
X119507000Y-109093000D01*
X120700155Y-109093000D01*
X120821476Y-108863110D01*
X120651645Y-108453076D01*
X120261358Y-108024817D01*
X120102046Y-107950000D01*
X120261358Y-107875183D01*
X120651645Y-107446924D01*
X120821476Y-107036890D01*
X120700155Y-106807000D01*
X119507000Y-106807000D01*
X119253000Y-106807000D01*
X119233000Y-106807000D01*
X119233000Y-106553000D01*
X119253000Y-106553000D01*
X119253000Y-106533000D01*
X119507000Y-106533000D01*
X119507000Y-106553000D01*
X120700155Y-106553000D01*
X120821476Y-106323110D01*
X120797407Y-106264999D01*
X135670198Y-106264999D01*
X135707225Y-106302026D01*
X135707225Y-106302026D01*
G37*
X135707225Y-106302026D02*
X135632041Y-106680000D01*
X135748350Y-107264725D01*
X136079570Y-107760430D01*
X136363281Y-107950000D01*
X136079570Y-108139570D01*
X135748350Y-108635275D01*
X135632041Y-109220000D01*
X135733486Y-109730000D01*
X120758060Y-109730000D01*
X120821476Y-109576890D01*
X120700155Y-109347000D01*
X119507000Y-109347000D01*
X119507000Y-109367000D01*
X119253000Y-109367000D01*
X119253000Y-109347000D01*
X119233000Y-109347000D01*
X119233000Y-109093000D01*
X119253000Y-109093000D01*
X119253000Y-106807000D01*
X119507000Y-106807000D01*
X119507000Y-109093000D01*
X120700155Y-109093000D01*
X120821476Y-108863110D01*
X120651645Y-108453076D01*
X120261358Y-108024817D01*
X120102046Y-107950000D01*
X120261358Y-107875183D01*
X120651645Y-107446924D01*
X120821476Y-107036890D01*
X120700155Y-106807000D01*
X119507000Y-106807000D01*
X119253000Y-106807000D01*
X119233000Y-106807000D01*
X119233000Y-106553000D01*
X119253000Y-106553000D01*
X119253000Y-106533000D01*
X119507000Y-106533000D01*
X119507000Y-106553000D01*
X120700155Y-106553000D01*
X120821476Y-106323110D01*
X120797407Y-106264999D01*
X135670198Y-106264999D01*
X135707225Y-106302026D01*
G36*
X135707225Y-103762026D02*
X135632041Y-104140000D01*
X135748350Y-104724725D01*
X135761897Y-104744999D01*
X120718712Y-104744999D01*
X120821476Y-104496890D01*
X120700155Y-104267000D01*
X119507000Y-104267000D01*
X119507000Y-104287000D01*
X119253000Y-104287000D01*
X119253000Y-104267000D01*
X119233000Y-104267000D01*
X119233000Y-104013000D01*
X119253000Y-104013000D01*
X119253000Y-103993000D01*
X119507000Y-103993000D01*
X119507000Y-104013000D01*
X120700155Y-104013000D01*
X120821476Y-103783110D01*
X120797407Y-103724999D01*
X135670198Y-103724999D01*
X135707225Y-103762026D01*
X135707225Y-103762026D01*
G37*
X135707225Y-103762026D02*
X135632041Y-104140000D01*
X135748350Y-104724725D01*
X135761897Y-104744999D01*
X120718712Y-104744999D01*
X120821476Y-104496890D01*
X120700155Y-104267000D01*
X119507000Y-104267000D01*
X119507000Y-104287000D01*
X119253000Y-104287000D01*
X119253000Y-104267000D01*
X119233000Y-104267000D01*
X119233000Y-104013000D01*
X119253000Y-104013000D01*
X119253000Y-103993000D01*
X119507000Y-103993000D01*
X119507000Y-104013000D01*
X120700155Y-104013000D01*
X120821476Y-103783110D01*
X120797407Y-103724999D01*
X135670198Y-103724999D01*
X135707225Y-103762026D01*
G04 #@! TD*
M02*
