G04 #@! TF.GenerationSoftware,KiCad,Pcbnew,(6.0.8)*
G04 #@! TF.CreationDate,2023-03-10T19:02:43+01:00*
G04 #@! TF.ProjectId,Jlink_power_supply,4a6c696e-6b5f-4706-9f77-65725f737570,rev?*
G04 #@! TF.SameCoordinates,Original*
G04 #@! TF.FileFunction,Soldermask,Top*
G04 #@! TF.FilePolarity,Negative*
%FSLAX46Y46*%
G04 Gerber Fmt 4.6, Leading zero omitted, Abs format (unit mm)*
G04 Created by KiCad (PCBNEW (6.0.8)) date 2023-03-10 19:02:43*
%MOMM*%
%LPD*%
G01*
G04 APERTURE LIST*
G04 Aperture macros list*
%AMRoundRect*
0 Rectangle with rounded corners*
0 $1 Rounding radius*
0 $2 $3 $4 $5 $6 $7 $8 $9 X,Y pos of 4 corners*
0 Add a 4 corners polygon primitive as box body*
4,1,4,$2,$3,$4,$5,$6,$7,$8,$9,$2,$3,0*
0 Add four circle primitives for the rounded corners*
1,1,$1+$1,$2,$3*
1,1,$1+$1,$4,$5*
1,1,$1+$1,$6,$7*
1,1,$1+$1,$8,$9*
0 Add four rect primitives between the rounded corners*
20,1,$1+$1,$2,$3,$4,$5,0*
20,1,$1+$1,$4,$5,$6,$7,0*
20,1,$1+$1,$6,$7,$8,$9,0*
20,1,$1+$1,$8,$9,$2,$3,0*%
G04 Aperture macros list end*
%ADD10R,2.000000X1.500000*%
%ADD11R,2.000000X3.800000*%
%ADD12R,1.727200X1.727200*%
%ADD13O,1.727200X1.727200*%
%ADD14R,1.700000X1.700000*%
%ADD15O,1.700000X1.700000*%
%ADD16RoundRect,0.250000X0.475000X-0.337500X0.475000X0.337500X-0.475000X0.337500X-0.475000X-0.337500X0*%
%ADD17RoundRect,0.250000X-0.325000X-0.450000X0.325000X-0.450000X0.325000X0.450000X-0.325000X0.450000X0*%
%ADD18RoundRect,0.250000X0.350000X0.450000X-0.350000X0.450000X-0.350000X-0.450000X0.350000X-0.450000X0*%
G04 APERTURE END LIST*
D10*
X127685000Y-116445000D03*
D11*
X133985000Y-118745000D03*
D10*
X127685000Y-118745000D03*
X127685000Y-121045000D03*
D12*
X137160000Y-96520000D03*
D13*
X139700000Y-96520000D03*
X137160000Y-99060000D03*
X139700000Y-99060000D03*
X137160000Y-101600000D03*
X139700000Y-101600000D03*
X137160000Y-104140000D03*
X139700000Y-104140000D03*
X137160000Y-106680000D03*
X139700000Y-106680000D03*
X137160000Y-109220000D03*
X139700000Y-109220000D03*
X137160000Y-111760000D03*
X139700000Y-111760000D03*
X137160000Y-114300000D03*
X139700000Y-114300000D03*
X137160000Y-116840000D03*
X139700000Y-116840000D03*
X137160000Y-119380000D03*
X139700000Y-119380000D03*
D14*
X125730000Y-97155000D03*
D15*
X125730000Y-94615000D03*
X128270000Y-97155000D03*
X128270000Y-94615000D03*
X130810000Y-97155000D03*
X130810000Y-94615000D03*
D16*
X123825000Y-117010000D03*
X123825000Y-114935000D03*
X123825000Y-122090000D03*
X123825000Y-120015000D03*
D17*
X125730000Y-109220000D03*
X127780000Y-109220000D03*
D18*
X127730000Y-106680000D03*
X125730000Y-106680000D03*
D14*
X119380000Y-119380000D03*
D15*
X116840000Y-119380000D03*
X119380000Y-116840000D03*
X116840000Y-116840000D03*
X119380000Y-114300000D03*
X116840000Y-114300000D03*
X119380000Y-111760000D03*
X116840000Y-111760000D03*
X119380000Y-109220000D03*
X116840000Y-109220000D03*
X119380000Y-106680000D03*
X116840000Y-106680000D03*
X119380000Y-104140000D03*
X116840000Y-104140000D03*
X119380000Y-101600000D03*
X116840000Y-101600000D03*
X119380000Y-99060000D03*
X116840000Y-99060000D03*
X119380000Y-96520000D03*
X116840000Y-96520000D03*
M02*
