G04 #@! TF.GenerationSoftware,KiCad,Pcbnew,(5.0.2)-1*
G04 #@! TF.CreationDate,2019-09-12T21:25:24+02:00*
G04 #@! TF.ProjectId,Jlink_power_supply,4a6c696e-6b5f-4706-9f77-65725f737570,rev?*
G04 #@! TF.SameCoordinates,Original*
G04 #@! TF.FileFunction,Legend,Top*
G04 #@! TF.FilePolarity,Positive*
%FSLAX46Y46*%
G04 Gerber Fmt 4.6, Leading zero omitted, Abs format (unit mm)*
G04 Created by KiCad (PCBNEW (5.0.2)-1) date 2019-09-12 21:25:24*
%MOMM*%
%LPD*%
G01*
G04 APERTURE LIST*
%ADD10C,0.300000*%
%ADD11C,0.200000*%
%ADD12C,0.120000*%
%ADD13C,0.150000*%
G04 APERTURE END LIST*
D10*
X129583571Y-103587857D02*
X128083571Y-103587857D01*
X129583571Y-102730714D01*
X128083571Y-102730714D01*
X129440714Y-101159285D02*
X129512142Y-101230714D01*
X129583571Y-101445000D01*
X129583571Y-101587857D01*
X129512142Y-101802142D01*
X129369285Y-101945000D01*
X129226428Y-102016428D01*
X128940714Y-102087857D01*
X128726428Y-102087857D01*
X128440714Y-102016428D01*
X128297857Y-101945000D01*
X128155000Y-101802142D01*
X128083571Y-101587857D01*
X128083571Y-101445000D01*
X128155000Y-101230714D01*
X128226428Y-101159285D01*
X125543571Y-102873571D02*
X125543571Y-103587857D01*
X126257857Y-103659285D01*
X126186428Y-103587857D01*
X126115000Y-103445000D01*
X126115000Y-103087857D01*
X126186428Y-102945000D01*
X126257857Y-102873571D01*
X126400714Y-102802142D01*
X126757857Y-102802142D01*
X126900714Y-102873571D01*
X126972142Y-102945000D01*
X127043571Y-103087857D01*
X127043571Y-103445000D01*
X126972142Y-103587857D01*
X126900714Y-103659285D01*
X125543571Y-102373571D02*
X127043571Y-101873571D01*
X125543571Y-101373571D01*
D11*
X146050000Y-104140000D02*
X146050000Y-105410000D01*
D10*
X130623571Y-103730714D02*
X130623571Y-102802142D01*
X131195000Y-103302142D01*
X131195000Y-103087857D01*
X131266428Y-102945000D01*
X131337857Y-102873571D01*
X131480714Y-102802142D01*
X131837857Y-102802142D01*
X131980714Y-102873571D01*
X132052142Y-102945000D01*
X132123571Y-103087857D01*
X132123571Y-103516428D01*
X132052142Y-103659285D01*
X131980714Y-103730714D01*
X130623571Y-102373571D02*
X132123571Y-101873571D01*
X130623571Y-101373571D01*
X130623571Y-101016428D02*
X130623571Y-100087857D01*
X131195000Y-100587857D01*
X131195000Y-100373571D01*
X131266428Y-100230714D01*
X131337857Y-100159285D01*
X131480714Y-100087857D01*
X131837857Y-100087857D01*
X131980714Y-100159285D01*
X132052142Y-100230714D01*
X132123571Y-100373571D01*
X132123571Y-100802142D01*
X132052142Y-100945000D01*
X131980714Y-101016428D01*
D12*
G04 #@! TO.C,U1*
X130205000Y-122155000D02*
X130205000Y-120895000D01*
X130205000Y-115335000D02*
X130205000Y-116595000D01*
X126445000Y-122155000D02*
X130205000Y-122155000D01*
X124195000Y-115335000D02*
X130205000Y-115335000D01*
G04 #@! TO.C,J3*
X141290000Y-105700000D02*
X150640000Y-105700000D01*
X141290000Y-124730000D02*
X141290000Y-91170000D01*
X141290000Y-124730000D02*
X150640000Y-124730000D01*
X141290000Y-110200000D02*
X150640000Y-110200000D01*
X141290000Y-91170000D02*
X150640000Y-91170000D01*
X150640000Y-91170000D02*
X150640000Y-124730000D01*
X137160000Y-95250000D02*
X135890000Y-95250000D01*
X135890000Y-95250000D02*
X135890000Y-96520000D01*
G04 #@! TO.C,J2*
X132140000Y-98485000D02*
X132140000Y-93285000D01*
X127000000Y-98485000D02*
X132140000Y-98485000D01*
X124400000Y-93285000D02*
X132140000Y-93285000D01*
X127000000Y-98485000D02*
X127000000Y-95885000D01*
X127000000Y-95885000D02*
X124400000Y-95885000D01*
X124400000Y-95885000D02*
X124400000Y-93285000D01*
X125730000Y-98485000D02*
X124400000Y-98485000D01*
X124400000Y-98485000D02*
X124400000Y-97155000D01*
G04 #@! TO.C,U1*
D13*
X127533095Y-113697380D02*
X127533095Y-114506904D01*
X127580714Y-114602142D01*
X127628333Y-114649761D01*
X127723571Y-114697380D01*
X127914047Y-114697380D01*
X128009285Y-114649761D01*
X128056904Y-114602142D01*
X128104523Y-114506904D01*
X128104523Y-113697380D01*
X129104523Y-114697380D02*
X128533095Y-114697380D01*
X128818809Y-114697380D02*
X128818809Y-113697380D01*
X128723571Y-113840238D01*
X128628333Y-113935476D01*
X128533095Y-113983095D01*
G04 #@! TO.C,J3*
X142931666Y-89622380D02*
X142931666Y-90336666D01*
X142884047Y-90479523D01*
X142788809Y-90574761D01*
X142645952Y-90622380D01*
X142550714Y-90622380D01*
X143312619Y-89622380D02*
X143931666Y-89622380D01*
X143598333Y-90003333D01*
X143741190Y-90003333D01*
X143836428Y-90050952D01*
X143884047Y-90098571D01*
X143931666Y-90193809D01*
X143931666Y-90431904D01*
X143884047Y-90527142D01*
X143836428Y-90574761D01*
X143741190Y-90622380D01*
X143455476Y-90622380D01*
X143360238Y-90574761D01*
X143312619Y-90527142D01*
G04 #@! TO.C,J2*
X122852380Y-96218333D02*
X123566666Y-96218333D01*
X123709523Y-96265952D01*
X123804761Y-96361190D01*
X123852380Y-96504047D01*
X123852380Y-96599285D01*
X122947619Y-95789761D02*
X122900000Y-95742142D01*
X122852380Y-95646904D01*
X122852380Y-95408809D01*
X122900000Y-95313571D01*
X122947619Y-95265952D01*
X123042857Y-95218333D01*
X123138095Y-95218333D01*
X123280952Y-95265952D01*
X123852380Y-95837380D01*
X123852380Y-95218333D01*
G04 #@! TD*
M02*
