G04 #@! TF.GenerationSoftware,KiCad,Pcbnew,(6.0.8)*
G04 #@! TF.CreationDate,2023-03-10T19:02:43+01:00*
G04 #@! TF.ProjectId,Jlink_power_supply,4a6c696e-6b5f-4706-9f77-65725f737570,rev?*
G04 #@! TF.SameCoordinates,Original*
G04 #@! TF.FileFunction,Soldermask,Bot*
G04 #@! TF.FilePolarity,Negative*
%FSLAX46Y46*%
G04 Gerber Fmt 4.6, Leading zero omitted, Abs format (unit mm)*
G04 Created by KiCad (PCBNEW (6.0.8)) date 2023-03-10 19:02:43*
%MOMM*%
%LPD*%
G01*
G04 APERTURE LIST*
%ADD10R,1.727200X1.727200*%
%ADD11O,1.727200X1.727200*%
%ADD12R,1.700000X1.700000*%
%ADD13O,1.700000X1.700000*%
G04 APERTURE END LIST*
D10*
X137160000Y-96520000D03*
D11*
X139700000Y-96520000D03*
X137160000Y-99060000D03*
X139700000Y-99060000D03*
X137160000Y-101600000D03*
X139700000Y-101600000D03*
X137160000Y-104140000D03*
X139700000Y-104140000D03*
X137160000Y-106680000D03*
X139700000Y-106680000D03*
X137160000Y-109220000D03*
X139700000Y-109220000D03*
X137160000Y-111760000D03*
X139700000Y-111760000D03*
X137160000Y-114300000D03*
X139700000Y-114300000D03*
X137160000Y-116840000D03*
X139700000Y-116840000D03*
X137160000Y-119380000D03*
X139700000Y-119380000D03*
D12*
X125730000Y-97155000D03*
D13*
X125730000Y-94615000D03*
X128270000Y-97155000D03*
X128270000Y-94615000D03*
X130810000Y-97155000D03*
X130810000Y-94615000D03*
D12*
X119380000Y-119380000D03*
D13*
X116840000Y-119380000D03*
X119380000Y-116840000D03*
X116840000Y-116840000D03*
X119380000Y-114300000D03*
X116840000Y-114300000D03*
X119380000Y-111760000D03*
X116840000Y-111760000D03*
X119380000Y-109220000D03*
X116840000Y-109220000D03*
X119380000Y-106680000D03*
X116840000Y-106680000D03*
X119380000Y-104140000D03*
X116840000Y-104140000D03*
X119380000Y-101600000D03*
X116840000Y-101600000D03*
X119380000Y-99060000D03*
X116840000Y-99060000D03*
X119380000Y-96520000D03*
X116840000Y-96520000D03*
M02*
