G04 #@! TF.GenerationSoftware,KiCad,Pcbnew,(5.0.2)-1*
G04 #@! TF.CreationDate,2019-09-12T21:25:24+02:00*
G04 #@! TF.ProjectId,Jlink_power_supply,4a6c696e-6b5f-4706-9f77-65725f737570,rev?*
G04 #@! TF.SameCoordinates,Original*
G04 #@! TF.FileFunction,Legend,Bot*
G04 #@! TF.FilePolarity,Positive*
%FSLAX46Y46*%
G04 Gerber Fmt 4.6, Leading zero omitted, Abs format (unit mm)*
G04 Created by KiCad (PCBNEW (5.0.2)-1) date 2019-09-12 21:25:24*
%MOMM*%
%LPD*%
G01*
G04 APERTURE LIST*
%ADD10C,0.120000*%
%ADD11C,0.150000*%
G04 APERTURE END LIST*
D10*
G04 #@! TO.C,J1*
X106750000Y-120590000D02*
X115380000Y-120590000D01*
X106750000Y-120471905D02*
X115380000Y-120471905D01*
X106750000Y-120353810D02*
X115380000Y-120353810D01*
X106750000Y-120235715D02*
X115380000Y-120235715D01*
X106750000Y-120117620D02*
X115380000Y-120117620D01*
X106750000Y-119999525D02*
X115380000Y-119999525D01*
X106750000Y-119881430D02*
X115380000Y-119881430D01*
X106750000Y-119763335D02*
X115380000Y-119763335D01*
X106750000Y-119645240D02*
X115380000Y-119645240D01*
X106750000Y-119527145D02*
X115380000Y-119527145D01*
X106750000Y-119409050D02*
X115380000Y-119409050D01*
X106750000Y-119290955D02*
X115380000Y-119290955D01*
X106750000Y-119172860D02*
X115380000Y-119172860D01*
X106750000Y-119054765D02*
X115380000Y-119054765D01*
X106750000Y-118936670D02*
X115380000Y-118936670D01*
X106750000Y-118818575D02*
X115380000Y-118818575D01*
X106750000Y-118700480D02*
X115380000Y-118700480D01*
X106750000Y-118582385D02*
X115380000Y-118582385D01*
X106750000Y-118464290D02*
X115380000Y-118464290D01*
X106750000Y-118346195D02*
X115380000Y-118346195D01*
X106750000Y-118228100D02*
X115380000Y-118228100D01*
X115380000Y-119740000D02*
X115790000Y-119740000D01*
X117890000Y-119740000D02*
X118270000Y-119740000D01*
X115380000Y-119020000D02*
X115790000Y-119020000D01*
X117890000Y-119020000D02*
X118270000Y-119020000D01*
X115380000Y-117200000D02*
X115790000Y-117200000D01*
X117890000Y-117200000D02*
X118330000Y-117200000D01*
X115380000Y-116480000D02*
X115790000Y-116480000D01*
X117890000Y-116480000D02*
X118330000Y-116480000D01*
X115380000Y-114660000D02*
X115790000Y-114660000D01*
X117890000Y-114660000D02*
X118330000Y-114660000D01*
X115380000Y-113940000D02*
X115790000Y-113940000D01*
X117890000Y-113940000D02*
X118330000Y-113940000D01*
X115380000Y-112120000D02*
X115790000Y-112120000D01*
X117890000Y-112120000D02*
X118330000Y-112120000D01*
X115380000Y-111400000D02*
X115790000Y-111400000D01*
X117890000Y-111400000D02*
X118330000Y-111400000D01*
X115380000Y-109580000D02*
X115790000Y-109580000D01*
X117890000Y-109580000D02*
X118330000Y-109580000D01*
X115380000Y-108860000D02*
X115790000Y-108860000D01*
X117890000Y-108860000D02*
X118330000Y-108860000D01*
X115380000Y-107040000D02*
X115790000Y-107040000D01*
X117890000Y-107040000D02*
X118330000Y-107040000D01*
X115380000Y-106320000D02*
X115790000Y-106320000D01*
X117890000Y-106320000D02*
X118330000Y-106320000D01*
X115380000Y-104500000D02*
X115790000Y-104500000D01*
X117890000Y-104500000D02*
X118330000Y-104500000D01*
X115380000Y-103780000D02*
X115790000Y-103780000D01*
X117890000Y-103780000D02*
X118330000Y-103780000D01*
X115380000Y-101960000D02*
X115790000Y-101960000D01*
X117890000Y-101960000D02*
X118330000Y-101960000D01*
X115380000Y-101240000D02*
X115790000Y-101240000D01*
X117890000Y-101240000D02*
X118330000Y-101240000D01*
X115380000Y-99420000D02*
X115790000Y-99420000D01*
X117890000Y-99420000D02*
X118330000Y-99420000D01*
X115380000Y-98700000D02*
X115790000Y-98700000D01*
X117890000Y-98700000D02*
X118330000Y-98700000D01*
X115380000Y-96880000D02*
X115790000Y-96880000D01*
X117890000Y-96880000D02*
X118330000Y-96880000D01*
X115380000Y-96160000D02*
X115790000Y-96160000D01*
X117890000Y-96160000D02*
X118330000Y-96160000D01*
X106750000Y-118110000D02*
X115380000Y-118110000D01*
X106750000Y-115570000D02*
X115380000Y-115570000D01*
X106750000Y-113030000D02*
X115380000Y-113030000D01*
X106750000Y-110490000D02*
X115380000Y-110490000D01*
X106750000Y-107950000D02*
X115380000Y-107950000D01*
X106750000Y-105410000D02*
X115380000Y-105410000D01*
X106750000Y-102870000D02*
X115380000Y-102870000D01*
X106750000Y-100330000D02*
X115380000Y-100330000D01*
X106750000Y-97790000D02*
X115380000Y-97790000D01*
X106750000Y-120710000D02*
X115380000Y-120710000D01*
X115380000Y-120710000D02*
X115380000Y-95190000D01*
X106750000Y-95190000D02*
X115380000Y-95190000D01*
X106750000Y-120710000D02*
X106750000Y-95190000D01*
X120490000Y-120710000D02*
X120490000Y-119380000D01*
X119380000Y-120710000D02*
X120490000Y-120710000D01*
D11*
X114063333Y-121602380D02*
X114063333Y-122316666D01*
X114110952Y-122459523D01*
X114206190Y-122554761D01*
X114349047Y-122602380D01*
X114444285Y-122602380D01*
X113063333Y-122602380D02*
X113634761Y-122602380D01*
X113349047Y-122602380D02*
X113349047Y-121602380D01*
X113444285Y-121745238D01*
X113539523Y-121840476D01*
X113634761Y-121888095D01*
G04 #@! TD*
M02*
