G04 #@! TF.GenerationSoftware,KiCad,Pcbnew,(6.0.8)*
G04 #@! TF.CreationDate,2023-03-10T19:02:43+01:00*
G04 #@! TF.ProjectId,Jlink_power_supply,4a6c696e-6b5f-4706-9f77-65725f737570,rev?*
G04 #@! TF.SameCoordinates,Original*
G04 #@! TF.FileFunction,Copper,L2,Bot*
G04 #@! TF.FilePolarity,Positive*
%FSLAX46Y46*%
G04 Gerber Fmt 4.6, Leading zero omitted, Abs format (unit mm)*
G04 Created by KiCad (PCBNEW (6.0.8)) date 2023-03-10 19:02:43*
%MOMM*%
%LPD*%
G01*
G04 APERTURE LIST*
G04 #@! TA.AperFunction,ComponentPad*
%ADD10R,1.727200X1.727200*%
G04 #@! TD*
G04 #@! TA.AperFunction,ComponentPad*
%ADD11O,1.727200X1.727200*%
G04 #@! TD*
G04 #@! TA.AperFunction,ComponentPad*
%ADD12R,1.700000X1.700000*%
G04 #@! TD*
G04 #@! TA.AperFunction,ComponentPad*
%ADD13O,1.700000X1.700000*%
G04 #@! TD*
G04 #@! TA.AperFunction,ViaPad*
%ADD14C,0.800000*%
G04 #@! TD*
G04 #@! TA.AperFunction,Conductor*
%ADD15C,0.250000*%
G04 #@! TD*
G04 APERTURE END LIST*
D10*
X137160000Y-96520000D03*
D11*
X139700000Y-96520000D03*
X137160000Y-99060000D03*
X139700000Y-99060000D03*
X137160000Y-101600000D03*
X139700000Y-101600000D03*
X137160000Y-104140000D03*
X139700000Y-104140000D03*
X137160000Y-106680000D03*
X139700000Y-106680000D03*
X137160000Y-109220000D03*
X139700000Y-109220000D03*
X137160000Y-111760000D03*
X139700000Y-111760000D03*
X137160000Y-114300000D03*
X139700000Y-114300000D03*
X137160000Y-116840000D03*
X139700000Y-116840000D03*
X137160000Y-119380000D03*
X139700000Y-119380000D03*
D12*
X125730000Y-97155000D03*
D13*
X125730000Y-94615000D03*
X128270000Y-97155000D03*
X128270000Y-94615000D03*
X130810000Y-97155000D03*
X130810000Y-94615000D03*
D12*
X119380000Y-119380000D03*
D13*
X116840000Y-119380000D03*
X119380000Y-116840000D03*
X116840000Y-116840000D03*
X119380000Y-114300000D03*
X116840000Y-114300000D03*
X119380000Y-111760000D03*
X116840000Y-111760000D03*
X119380000Y-109220000D03*
X116840000Y-109220000D03*
X119380000Y-106680000D03*
X116840000Y-106680000D03*
X119380000Y-104140000D03*
X116840000Y-104140000D03*
X119380000Y-101600000D03*
X116840000Y-101600000D03*
X119380000Y-99060000D03*
X116840000Y-99060000D03*
X119380000Y-96520000D03*
X116840000Y-96520000D03*
D14*
X128905000Y-114300000D03*
D15*
X136296401Y-103276401D02*
X137160000Y-104140000D01*
X116840000Y-104140000D02*
X118015001Y-102964999D01*
X118015001Y-102964999D02*
X135984999Y-102964999D01*
X135984999Y-102964999D02*
X136296401Y-103276401D01*
X135984999Y-105504999D02*
X136296401Y-105816401D01*
X116840000Y-106680000D02*
X118015001Y-105504999D01*
X118015001Y-105504999D02*
X135984999Y-105504999D01*
X136296401Y-105816401D02*
X137160000Y-106680000D01*
X118110000Y-110490000D02*
X135890000Y-110490000D01*
X136296401Y-110896401D02*
X137160000Y-111760000D01*
X116840000Y-111760000D02*
X118110000Y-110490000D01*
X135890000Y-110490000D02*
X136296401Y-110896401D01*
X136296401Y-113436401D02*
X137160000Y-114300000D01*
X116840000Y-114300000D02*
X118204999Y-112935001D01*
X118204999Y-112935001D02*
X135795001Y-112935001D01*
X135795001Y-112935001D02*
X136296401Y-113436401D01*
G04 #@! TA.AperFunction,Conductor*
G36*
X143578621Y-91968502D02*
G01*
X143625114Y-92022158D01*
X143636500Y-92074500D01*
X143636500Y-123825500D01*
X143616498Y-123893621D01*
X143562842Y-123940114D01*
X143510500Y-123951500D01*
X113664500Y-123951500D01*
X113596379Y-123931498D01*
X113549886Y-123877842D01*
X113538500Y-123825500D01*
X113538500Y-119346695D01*
X115477251Y-119346695D01*
X115490110Y-119569715D01*
X115491247Y-119574761D01*
X115491248Y-119574767D01*
X115505449Y-119637778D01*
X115539222Y-119787639D01*
X115623266Y-119994616D01*
X115739987Y-120185088D01*
X115886250Y-120353938D01*
X116058126Y-120496632D01*
X116251000Y-120609338D01*
X116459692Y-120689030D01*
X116464760Y-120690061D01*
X116464763Y-120690062D01*
X116526803Y-120702684D01*
X116678597Y-120733567D01*
X116683772Y-120733757D01*
X116683774Y-120733757D01*
X116896673Y-120741564D01*
X116896677Y-120741564D01*
X116901837Y-120741753D01*
X116906957Y-120741097D01*
X116906959Y-120741097D01*
X117118288Y-120714025D01*
X117118289Y-120714025D01*
X117123416Y-120713368D01*
X117157421Y-120703166D01*
X117332429Y-120650661D01*
X117332434Y-120650659D01*
X117337384Y-120649174D01*
X117537994Y-120550896D01*
X117719860Y-120421173D01*
X117787331Y-120353938D01*
X117828479Y-120312933D01*
X117890851Y-120279017D01*
X117961658Y-120284205D01*
X118018419Y-120326851D01*
X118035401Y-120357954D01*
X118076676Y-120468054D01*
X118085214Y-120483649D01*
X118161715Y-120585724D01*
X118174276Y-120598285D01*
X118276351Y-120674786D01*
X118291946Y-120683324D01*
X118412394Y-120728478D01*
X118427649Y-120732105D01*
X118478514Y-120737631D01*
X118485328Y-120738000D01*
X119107885Y-120738000D01*
X119123124Y-120733525D01*
X119124329Y-120732135D01*
X119126000Y-120724452D01*
X119126000Y-120719884D01*
X119634000Y-120719884D01*
X119638475Y-120735123D01*
X119639865Y-120736328D01*
X119647548Y-120737999D01*
X120274669Y-120737999D01*
X120281490Y-120737629D01*
X120332352Y-120732105D01*
X120347604Y-120728479D01*
X120468054Y-120683324D01*
X120483649Y-120674786D01*
X120585724Y-120598285D01*
X120598285Y-120585724D01*
X120674786Y-120483649D01*
X120683324Y-120468054D01*
X120728478Y-120347606D01*
X120732105Y-120332351D01*
X120737631Y-120281486D01*
X120738000Y-120274672D01*
X120738000Y-119652115D01*
X120733525Y-119636876D01*
X120732135Y-119635671D01*
X120724452Y-119634000D01*
X119652115Y-119634000D01*
X119636876Y-119638475D01*
X119635671Y-119639865D01*
X119634000Y-119647548D01*
X119634000Y-120719884D01*
X119126000Y-120719884D01*
X119126000Y-119107885D01*
X119634000Y-119107885D01*
X119638475Y-119123124D01*
X119639865Y-119124329D01*
X119647548Y-119126000D01*
X120719884Y-119126000D01*
X120735123Y-119121525D01*
X120736328Y-119120135D01*
X120737999Y-119112452D01*
X120737999Y-118485331D01*
X120737629Y-118478510D01*
X120732105Y-118427648D01*
X120728479Y-118412396D01*
X120683324Y-118291946D01*
X120674786Y-118276351D01*
X120598285Y-118174276D01*
X120585724Y-118161715D01*
X120483649Y-118085214D01*
X120468054Y-118076676D01*
X120357297Y-118035155D01*
X120300533Y-117992513D01*
X120275833Y-117925952D01*
X120291040Y-117856603D01*
X120312587Y-117827922D01*
X120414057Y-117726805D01*
X120420730Y-117718965D01*
X120545003Y-117546020D01*
X120550313Y-117537183D01*
X120644670Y-117346267D01*
X120648469Y-117336672D01*
X120710377Y-117132910D01*
X120712555Y-117122837D01*
X120713986Y-117111962D01*
X120711775Y-117097778D01*
X120698617Y-117094000D01*
X119652115Y-117094000D01*
X119636876Y-117098475D01*
X119635671Y-117099865D01*
X119634000Y-117107548D01*
X119634000Y-119107885D01*
X119126000Y-119107885D01*
X119126000Y-116567885D01*
X119634000Y-116567885D01*
X119638475Y-116583124D01*
X119639865Y-116584329D01*
X119647548Y-116586000D01*
X120698344Y-116586000D01*
X120711875Y-116582027D01*
X120713180Y-116572947D01*
X120671214Y-116405875D01*
X120667894Y-116396124D01*
X120582972Y-116200814D01*
X120578105Y-116191739D01*
X120462426Y-116012926D01*
X120456136Y-116004757D01*
X120312806Y-115847240D01*
X120305273Y-115840215D01*
X120138139Y-115708222D01*
X120129552Y-115702517D01*
X120092116Y-115681851D01*
X120042146Y-115631419D01*
X120027374Y-115561976D01*
X120052490Y-115495571D01*
X120079842Y-115468964D01*
X120255327Y-115343792D01*
X120263200Y-115337139D01*
X120414052Y-115186812D01*
X120420730Y-115178965D01*
X120545003Y-115006020D01*
X120550313Y-114997183D01*
X120644670Y-114806267D01*
X120648469Y-114796672D01*
X120710377Y-114592910D01*
X120712555Y-114582837D01*
X120713986Y-114571962D01*
X120711775Y-114557778D01*
X120698617Y-114554000D01*
X119652115Y-114554000D01*
X119636876Y-114558475D01*
X119635671Y-114559865D01*
X119634000Y-114567548D01*
X119634000Y-116567885D01*
X119126000Y-116567885D01*
X119126000Y-113694501D01*
X119146002Y-113626380D01*
X119199658Y-113579887D01*
X119252000Y-113568501D01*
X119508000Y-113568501D01*
X119576121Y-113588503D01*
X119622614Y-113642159D01*
X119634000Y-113694501D01*
X119634000Y-114027885D01*
X119638475Y-114043124D01*
X119639865Y-114044329D01*
X119647548Y-114046000D01*
X120698344Y-114046000D01*
X120711875Y-114042027D01*
X120713180Y-114032947D01*
X120671214Y-113865875D01*
X120667894Y-113856124D01*
X120619465Y-113744743D01*
X120610645Y-113674296D01*
X120641312Y-113610265D01*
X120701729Y-113572977D01*
X120735015Y-113568501D01*
X135480407Y-113568501D01*
X135548528Y-113588503D01*
X135569502Y-113605406D01*
X135798727Y-113834631D01*
X135832753Y-113896943D01*
X135831050Y-113957397D01*
X135811503Y-114027885D01*
X135807585Y-114042013D01*
X135783609Y-114266362D01*
X135783906Y-114271514D01*
X135783906Y-114271518D01*
X135794692Y-114458574D01*
X135796597Y-114491614D01*
X135797734Y-114496660D01*
X135797735Y-114496666D01*
X135811978Y-114559865D01*
X135846200Y-114711720D01*
X135848142Y-114716502D01*
X135848143Y-114716506D01*
X135929142Y-114915982D01*
X135931086Y-114920769D01*
X135933785Y-114925173D01*
X136041341Y-115100689D01*
X136048975Y-115113147D01*
X136196702Y-115283687D01*
X136370299Y-115427810D01*
X136374751Y-115430412D01*
X136374756Y-115430415D01*
X136424069Y-115459231D01*
X136472792Y-115510870D01*
X136485863Y-115580653D01*
X136459131Y-115646425D01*
X136428595Y-115673783D01*
X136426335Y-115674960D01*
X136245905Y-115810430D01*
X136090024Y-115973550D01*
X135962878Y-116159940D01*
X135960704Y-116164624D01*
X135960702Y-116164627D01*
X135943905Y-116200814D01*
X135867881Y-116364593D01*
X135807585Y-116582013D01*
X135783609Y-116806362D01*
X135783906Y-116811514D01*
X135783906Y-116811518D01*
X135794692Y-116998574D01*
X135796597Y-117031614D01*
X135797734Y-117036660D01*
X135797735Y-117036666D01*
X135811978Y-117099865D01*
X135846200Y-117251720D01*
X135848142Y-117256502D01*
X135848143Y-117256506D01*
X135929142Y-117455982D01*
X135931086Y-117460769D01*
X135933785Y-117465173D01*
X136041341Y-117640689D01*
X136048975Y-117653147D01*
X136196702Y-117823687D01*
X136370299Y-117967810D01*
X136374751Y-117970412D01*
X136374756Y-117970415D01*
X136424069Y-117999231D01*
X136472792Y-118050870D01*
X136485863Y-118120653D01*
X136459131Y-118186425D01*
X136428595Y-118213783D01*
X136426335Y-118214960D01*
X136245905Y-118350430D01*
X136090024Y-118513550D01*
X135962878Y-118699940D01*
X135960704Y-118704624D01*
X135960702Y-118704627D01*
X135946214Y-118735840D01*
X135867881Y-118904593D01*
X135807585Y-119122013D01*
X135783609Y-119346362D01*
X135783906Y-119351514D01*
X135783906Y-119351518D01*
X135794692Y-119538574D01*
X135796597Y-119571614D01*
X135797734Y-119576660D01*
X135797735Y-119576666D01*
X135817805Y-119665721D01*
X135846200Y-119791720D01*
X135848142Y-119796502D01*
X135848143Y-119796506D01*
X135929142Y-119995982D01*
X135931086Y-120000769D01*
X135933785Y-120005173D01*
X136041341Y-120180689D01*
X136048975Y-120193147D01*
X136196702Y-120363687D01*
X136370299Y-120507810D01*
X136374751Y-120510412D01*
X136374756Y-120510415D01*
X136464091Y-120562618D01*
X136565103Y-120621645D01*
X136775884Y-120702134D01*
X136780952Y-120703165D01*
X136780955Y-120703166D01*
X136863127Y-120719884D01*
X136996981Y-120747117D01*
X137002156Y-120747307D01*
X137002158Y-120747307D01*
X137217292Y-120755196D01*
X137217296Y-120755196D01*
X137222456Y-120755385D01*
X137227576Y-120754729D01*
X137227578Y-120754729D01*
X137296985Y-120745838D01*
X137446253Y-120726716D01*
X137451202Y-120725231D01*
X137451208Y-120725230D01*
X137657413Y-120663365D01*
X137657412Y-120663365D01*
X137662363Y-120661880D01*
X137817817Y-120585724D01*
X137860331Y-120564897D01*
X137860336Y-120564894D01*
X137864982Y-120562618D01*
X137869192Y-120559615D01*
X137869197Y-120559612D01*
X138044455Y-120434601D01*
X138044459Y-120434597D01*
X138048667Y-120431596D01*
X138208487Y-120272333D01*
X138329686Y-120103667D01*
X138385680Y-120060019D01*
X138456384Y-120053573D01*
X138519348Y-120086376D01*
X138539441Y-120111358D01*
X138586682Y-120188448D01*
X138592765Y-120196759D01*
X138733665Y-120359417D01*
X138741032Y-120366633D01*
X138906606Y-120504095D01*
X138915053Y-120510010D01*
X139100859Y-120618586D01*
X139110146Y-120623036D01*
X139311198Y-120699810D01*
X139321091Y-120702684D01*
X139428248Y-120724485D01*
X139442300Y-120723290D01*
X139446000Y-120712945D01*
X139446000Y-120712229D01*
X139954000Y-120712229D01*
X139958064Y-120726071D01*
X139971479Y-120728105D01*
X139981025Y-120726882D01*
X139991095Y-120724742D01*
X140197225Y-120662900D01*
X140206832Y-120659134D01*
X140400076Y-120564464D01*
X140408934Y-120559185D01*
X140584141Y-120434211D01*
X140592003Y-120427567D01*
X140744445Y-120275656D01*
X140751122Y-120267811D01*
X140876702Y-120093047D01*
X140882013Y-120084208D01*
X140977358Y-119891292D01*
X140981156Y-119881699D01*
X141043716Y-119675791D01*
X141045893Y-119665721D01*
X141047705Y-119651960D01*
X141045493Y-119637778D01*
X141032336Y-119634000D01*
X139972115Y-119634000D01*
X139956876Y-119638475D01*
X139955671Y-119639865D01*
X139954000Y-119647548D01*
X139954000Y-120712229D01*
X139446000Y-120712229D01*
X139446000Y-119107885D01*
X139954000Y-119107885D01*
X139958475Y-119123124D01*
X139959865Y-119124329D01*
X139967548Y-119126000D01*
X141032367Y-119126000D01*
X141045898Y-119122027D01*
X141047203Y-119112947D01*
X141004133Y-118941477D01*
X141000813Y-118931726D01*
X140914999Y-118734365D01*
X140910133Y-118725290D01*
X140793239Y-118544601D01*
X140786947Y-118536430D01*
X140642113Y-118377260D01*
X140634580Y-118370234D01*
X140465691Y-118236855D01*
X140457108Y-118231153D01*
X140437599Y-118220383D01*
X140387628Y-118169950D01*
X140372856Y-118100507D01*
X140397972Y-118034102D01*
X140425323Y-118007496D01*
X140584133Y-117894217D01*
X140592003Y-117887567D01*
X140744445Y-117735656D01*
X140751122Y-117727811D01*
X140876702Y-117553047D01*
X140882013Y-117544208D01*
X140977358Y-117351292D01*
X140981156Y-117341699D01*
X141043716Y-117135791D01*
X141045893Y-117125721D01*
X141047705Y-117111960D01*
X141045493Y-117097778D01*
X141032336Y-117094000D01*
X139972115Y-117094000D01*
X139956876Y-117098475D01*
X139955671Y-117099865D01*
X139954000Y-117107548D01*
X139954000Y-119107885D01*
X139446000Y-119107885D01*
X139446000Y-116567885D01*
X139954000Y-116567885D01*
X139958475Y-116583124D01*
X139959865Y-116584329D01*
X139967548Y-116586000D01*
X141032367Y-116586000D01*
X141045898Y-116582027D01*
X141047203Y-116572947D01*
X141004133Y-116401477D01*
X141000813Y-116391726D01*
X140914999Y-116194365D01*
X140910133Y-116185290D01*
X140793239Y-116004601D01*
X140786947Y-115996430D01*
X140642113Y-115837260D01*
X140634580Y-115830234D01*
X140465691Y-115696855D01*
X140457108Y-115691153D01*
X140437599Y-115680383D01*
X140387628Y-115629950D01*
X140372856Y-115560507D01*
X140397972Y-115494102D01*
X140425323Y-115467496D01*
X140584133Y-115354217D01*
X140592003Y-115347567D01*
X140744445Y-115195656D01*
X140751122Y-115187811D01*
X140876702Y-115013047D01*
X140882013Y-115004208D01*
X140977358Y-114811292D01*
X140981156Y-114801699D01*
X141043716Y-114595791D01*
X141045893Y-114585721D01*
X141047705Y-114571960D01*
X141045493Y-114557778D01*
X141032336Y-114554000D01*
X139972115Y-114554000D01*
X139956876Y-114558475D01*
X139955671Y-114559865D01*
X139954000Y-114567548D01*
X139954000Y-116567885D01*
X139446000Y-116567885D01*
X139446000Y-114027885D01*
X139954000Y-114027885D01*
X139958475Y-114043124D01*
X139959865Y-114044329D01*
X139967548Y-114046000D01*
X141032367Y-114046000D01*
X141045898Y-114042027D01*
X141047203Y-114032947D01*
X141004133Y-113861477D01*
X141000813Y-113851726D01*
X140914999Y-113654365D01*
X140910133Y-113645290D01*
X140793239Y-113464601D01*
X140786947Y-113456430D01*
X140642113Y-113297260D01*
X140634580Y-113290234D01*
X140465691Y-113156855D01*
X140457108Y-113151153D01*
X140437599Y-113140383D01*
X140387628Y-113089950D01*
X140372856Y-113020507D01*
X140397972Y-112954102D01*
X140425323Y-112927496D01*
X140584133Y-112814217D01*
X140592003Y-112807567D01*
X140744445Y-112655656D01*
X140751122Y-112647811D01*
X140876702Y-112473047D01*
X140882013Y-112464208D01*
X140977358Y-112271292D01*
X140981156Y-112261699D01*
X141043716Y-112055791D01*
X141045893Y-112045721D01*
X141047705Y-112031960D01*
X141045493Y-112017778D01*
X141032336Y-112014000D01*
X139972115Y-112014000D01*
X139956876Y-112018475D01*
X139955671Y-112019865D01*
X139954000Y-112027548D01*
X139954000Y-114027885D01*
X139446000Y-114027885D01*
X139446000Y-111487885D01*
X139954000Y-111487885D01*
X139958475Y-111503124D01*
X139959865Y-111504329D01*
X139967548Y-111506000D01*
X141032367Y-111506000D01*
X141045898Y-111502027D01*
X141047203Y-111492947D01*
X141004133Y-111321477D01*
X141000813Y-111311726D01*
X140914999Y-111114365D01*
X140910133Y-111105290D01*
X140793239Y-110924601D01*
X140786947Y-110916430D01*
X140642113Y-110757260D01*
X140634580Y-110750234D01*
X140465691Y-110616855D01*
X140457108Y-110611153D01*
X140437599Y-110600383D01*
X140387628Y-110549950D01*
X140372856Y-110480507D01*
X140397972Y-110414102D01*
X140425323Y-110387496D01*
X140584133Y-110274217D01*
X140592003Y-110267567D01*
X140744445Y-110115656D01*
X140751122Y-110107811D01*
X140876702Y-109933047D01*
X140882013Y-109924208D01*
X140977358Y-109731292D01*
X140981156Y-109721699D01*
X141043716Y-109515791D01*
X141045893Y-109505721D01*
X141047705Y-109491960D01*
X141045493Y-109477778D01*
X141032336Y-109474000D01*
X139972115Y-109474000D01*
X139956876Y-109478475D01*
X139955671Y-109479865D01*
X139954000Y-109487548D01*
X139954000Y-111487885D01*
X139446000Y-111487885D01*
X139446000Y-108947885D01*
X139954000Y-108947885D01*
X139958475Y-108963124D01*
X139959865Y-108964329D01*
X139967548Y-108966000D01*
X141032367Y-108966000D01*
X141045898Y-108962027D01*
X141047203Y-108952947D01*
X141004133Y-108781477D01*
X141000813Y-108771726D01*
X140914999Y-108574365D01*
X140910133Y-108565290D01*
X140793239Y-108384601D01*
X140786947Y-108376430D01*
X140642113Y-108217260D01*
X140634580Y-108210234D01*
X140465691Y-108076855D01*
X140457108Y-108071153D01*
X140437599Y-108060383D01*
X140387628Y-108009950D01*
X140372856Y-107940507D01*
X140397972Y-107874102D01*
X140425323Y-107847496D01*
X140584133Y-107734217D01*
X140592003Y-107727567D01*
X140744445Y-107575656D01*
X140751122Y-107567811D01*
X140876702Y-107393047D01*
X140882013Y-107384208D01*
X140977358Y-107191292D01*
X140981156Y-107181699D01*
X141043716Y-106975791D01*
X141045893Y-106965721D01*
X141047705Y-106951960D01*
X141045493Y-106937778D01*
X141032336Y-106934000D01*
X139972115Y-106934000D01*
X139956876Y-106938475D01*
X139955671Y-106939865D01*
X139954000Y-106947548D01*
X139954000Y-108947885D01*
X139446000Y-108947885D01*
X139446000Y-106407885D01*
X139954000Y-106407885D01*
X139958475Y-106423124D01*
X139959865Y-106424329D01*
X139967548Y-106426000D01*
X141032367Y-106426000D01*
X141045898Y-106422027D01*
X141047203Y-106412947D01*
X141004133Y-106241477D01*
X141000813Y-106231726D01*
X140914999Y-106034365D01*
X140910133Y-106025290D01*
X140793239Y-105844601D01*
X140786947Y-105836430D01*
X140642113Y-105677260D01*
X140634580Y-105670234D01*
X140465691Y-105536855D01*
X140457108Y-105531153D01*
X140437599Y-105520383D01*
X140387628Y-105469950D01*
X140372856Y-105400507D01*
X140397972Y-105334102D01*
X140425323Y-105307496D01*
X140584133Y-105194217D01*
X140592003Y-105187567D01*
X140744445Y-105035656D01*
X140751122Y-105027811D01*
X140876702Y-104853047D01*
X140882013Y-104844208D01*
X140977358Y-104651292D01*
X140981156Y-104641699D01*
X141043716Y-104435791D01*
X141045893Y-104425721D01*
X141047705Y-104411960D01*
X141045493Y-104397778D01*
X141032336Y-104394000D01*
X139972115Y-104394000D01*
X139956876Y-104398475D01*
X139955671Y-104399865D01*
X139954000Y-104407548D01*
X139954000Y-106407885D01*
X139446000Y-106407885D01*
X139446000Y-103867885D01*
X139954000Y-103867885D01*
X139958475Y-103883124D01*
X139959865Y-103884329D01*
X139967548Y-103886000D01*
X141032367Y-103886000D01*
X141045898Y-103882027D01*
X141047203Y-103872947D01*
X141004133Y-103701477D01*
X141000813Y-103691726D01*
X140914999Y-103494365D01*
X140910133Y-103485290D01*
X140793239Y-103304601D01*
X140786947Y-103296430D01*
X140642113Y-103137260D01*
X140634580Y-103130234D01*
X140465691Y-102996855D01*
X140457108Y-102991153D01*
X140437599Y-102980383D01*
X140387628Y-102929950D01*
X140372856Y-102860507D01*
X140397972Y-102794102D01*
X140425323Y-102767496D01*
X140584133Y-102654217D01*
X140592003Y-102647567D01*
X140744445Y-102495656D01*
X140751122Y-102487811D01*
X140876702Y-102313047D01*
X140882013Y-102304208D01*
X140977358Y-102111292D01*
X140981156Y-102101699D01*
X141043716Y-101895791D01*
X141045893Y-101885721D01*
X141047705Y-101871960D01*
X141045493Y-101857778D01*
X141032336Y-101854000D01*
X139972115Y-101854000D01*
X139956876Y-101858475D01*
X139955671Y-101859865D01*
X139954000Y-101867548D01*
X139954000Y-103867885D01*
X139446000Y-103867885D01*
X139446000Y-101327885D01*
X139954000Y-101327885D01*
X139958475Y-101343124D01*
X139959865Y-101344329D01*
X139967548Y-101346000D01*
X141032367Y-101346000D01*
X141045898Y-101342027D01*
X141047203Y-101332947D01*
X141004133Y-101161477D01*
X141000813Y-101151726D01*
X140914999Y-100954365D01*
X140910133Y-100945290D01*
X140793239Y-100764601D01*
X140786947Y-100756430D01*
X140642113Y-100597260D01*
X140634580Y-100590234D01*
X140465691Y-100456855D01*
X140457108Y-100451153D01*
X140437599Y-100440383D01*
X140387628Y-100389950D01*
X140372856Y-100320507D01*
X140397972Y-100254102D01*
X140425323Y-100227496D01*
X140584133Y-100114217D01*
X140592003Y-100107567D01*
X140744445Y-99955656D01*
X140751122Y-99947811D01*
X140876702Y-99773047D01*
X140882013Y-99764208D01*
X140977358Y-99571292D01*
X140981156Y-99561699D01*
X141043716Y-99355791D01*
X141045893Y-99345721D01*
X141047705Y-99331960D01*
X141045493Y-99317778D01*
X141032336Y-99314000D01*
X139972115Y-99314000D01*
X139956876Y-99318475D01*
X139955671Y-99319865D01*
X139954000Y-99327548D01*
X139954000Y-101327885D01*
X139446000Y-101327885D01*
X139446000Y-98932000D01*
X139466002Y-98863879D01*
X139519658Y-98817386D01*
X139572000Y-98806000D01*
X141032367Y-98806000D01*
X141045898Y-98802027D01*
X141047203Y-98792947D01*
X141004133Y-98621477D01*
X141000813Y-98611726D01*
X140914999Y-98414365D01*
X140910133Y-98405290D01*
X140793239Y-98224601D01*
X140786947Y-98216430D01*
X140642113Y-98057260D01*
X140634580Y-98050234D01*
X140465691Y-97916855D01*
X140457104Y-97911150D01*
X140438082Y-97900649D01*
X140388111Y-97850216D01*
X140373340Y-97780773D01*
X140398457Y-97714368D01*
X140425801Y-97687768D01*
X140588667Y-97571596D01*
X140748487Y-97412333D01*
X140880150Y-97229105D01*
X140980118Y-97026835D01*
X141045708Y-96810952D01*
X141059036Y-96709715D01*
X141074721Y-96590578D01*
X141074722Y-96590572D01*
X141075158Y-96587256D01*
X141076802Y-96520000D01*
X141058315Y-96295132D01*
X141003349Y-96076304D01*
X140913380Y-95869391D01*
X140847346Y-95767318D01*
X140793634Y-95684291D01*
X140793632Y-95684288D01*
X140790826Y-95679951D01*
X140638977Y-95513071D01*
X140634926Y-95509872D01*
X140634922Y-95509868D01*
X140465966Y-95376434D01*
X140465962Y-95376432D01*
X140461911Y-95373232D01*
X140455354Y-95369612D01*
X140360186Y-95317077D01*
X140264383Y-95264191D01*
X140051698Y-95188876D01*
X140001297Y-95179898D01*
X139834657Y-95150214D01*
X139834653Y-95150214D01*
X139829569Y-95149308D01*
X139757574Y-95148429D01*
X139609129Y-95146615D01*
X139609127Y-95146615D01*
X139603959Y-95146552D01*
X139380929Y-95180680D01*
X139166468Y-95250777D01*
X138966335Y-95354960D01*
X138962202Y-95358063D01*
X138962199Y-95358065D01*
X138879592Y-95420088D01*
X138785905Y-95490430D01*
X138779120Y-95497530D01*
X138722411Y-95556872D01*
X138660887Y-95592301D01*
X138589975Y-95588844D01*
X138532188Y-95547598D01*
X138513336Y-95514050D01*
X138477367Y-95418103D01*
X138474215Y-95409695D01*
X138386861Y-95293139D01*
X138270305Y-95205785D01*
X138133916Y-95154655D01*
X138071734Y-95147900D01*
X136248266Y-95147900D01*
X136186084Y-95154655D01*
X136049695Y-95205785D01*
X135933139Y-95293139D01*
X135845785Y-95409695D01*
X135794655Y-95546084D01*
X135787900Y-95608266D01*
X135787900Y-97431734D01*
X135794655Y-97493916D01*
X135845785Y-97630305D01*
X135933139Y-97746861D01*
X136049695Y-97834215D01*
X136058103Y-97837367D01*
X136153446Y-97873110D01*
X136210210Y-97915752D01*
X136234910Y-97982314D01*
X136219702Y-98051662D01*
X136200312Y-98078140D01*
X136090024Y-98193550D01*
X135962878Y-98379940D01*
X135960704Y-98384624D01*
X135960702Y-98384627D01*
X135899676Y-98516097D01*
X135867881Y-98584593D01*
X135807585Y-98802013D01*
X135783609Y-99026362D01*
X135783906Y-99031514D01*
X135783906Y-99031518D01*
X135794692Y-99218574D01*
X135796597Y-99251614D01*
X135797734Y-99256660D01*
X135797735Y-99256666D01*
X135811978Y-99319865D01*
X135846200Y-99471720D01*
X135848142Y-99476502D01*
X135848143Y-99476506D01*
X135929142Y-99675982D01*
X135931086Y-99680769D01*
X135933785Y-99685173D01*
X136041341Y-99860689D01*
X136048975Y-99873147D01*
X136196702Y-100043687D01*
X136370299Y-100187810D01*
X136374751Y-100190412D01*
X136374756Y-100190415D01*
X136424069Y-100219231D01*
X136472792Y-100270870D01*
X136485863Y-100340653D01*
X136459131Y-100406425D01*
X136428595Y-100433783D01*
X136426335Y-100434960D01*
X136245905Y-100570430D01*
X136090024Y-100733550D01*
X135962878Y-100919940D01*
X135960704Y-100924624D01*
X135960702Y-100924627D01*
X135943905Y-100960814D01*
X135867881Y-101124593D01*
X135807585Y-101342013D01*
X135783609Y-101566362D01*
X135783906Y-101571514D01*
X135783906Y-101571518D01*
X135794692Y-101758574D01*
X135796597Y-101791614D01*
X135797734Y-101796660D01*
X135797735Y-101796666D01*
X135811978Y-101859865D01*
X135846200Y-102011720D01*
X135848142Y-102016502D01*
X135848143Y-102016506D01*
X135905637Y-102158095D01*
X135912733Y-102228736D01*
X135880511Y-102291999D01*
X135819202Y-102327800D01*
X135788894Y-102331499D01*
X120736175Y-102331499D01*
X120668054Y-102311497D01*
X120621561Y-102257841D01*
X120611457Y-102187567D01*
X120623218Y-102149672D01*
X120644670Y-102106267D01*
X120648469Y-102096672D01*
X120710377Y-101892910D01*
X120712555Y-101882837D01*
X120713986Y-101871962D01*
X120711775Y-101857778D01*
X120698617Y-101854000D01*
X119652115Y-101854000D01*
X119636876Y-101858475D01*
X119635671Y-101859865D01*
X119634000Y-101867548D01*
X119634000Y-102205499D01*
X119613998Y-102273620D01*
X119560342Y-102320113D01*
X119508000Y-102331499D01*
X119252000Y-102331499D01*
X119183879Y-102311497D01*
X119137386Y-102257841D01*
X119126000Y-102205499D01*
X119126000Y-101327885D01*
X119634000Y-101327885D01*
X119638475Y-101343124D01*
X119639865Y-101344329D01*
X119647548Y-101346000D01*
X120698344Y-101346000D01*
X120711875Y-101342027D01*
X120713180Y-101332947D01*
X120671214Y-101165875D01*
X120667894Y-101156124D01*
X120582972Y-100960814D01*
X120578105Y-100951739D01*
X120462426Y-100772926D01*
X120456136Y-100764757D01*
X120312806Y-100607240D01*
X120305273Y-100600215D01*
X120138139Y-100468222D01*
X120129552Y-100462517D01*
X120092116Y-100441851D01*
X120042146Y-100391419D01*
X120027374Y-100321976D01*
X120052490Y-100255571D01*
X120079842Y-100228964D01*
X120255327Y-100103792D01*
X120263200Y-100097139D01*
X120414052Y-99946812D01*
X120420730Y-99938965D01*
X120545003Y-99766020D01*
X120550313Y-99757183D01*
X120644670Y-99566267D01*
X120648469Y-99556672D01*
X120710377Y-99352910D01*
X120712555Y-99342837D01*
X120713986Y-99331962D01*
X120711775Y-99317778D01*
X120698617Y-99314000D01*
X119652115Y-99314000D01*
X119636876Y-99318475D01*
X119635671Y-99319865D01*
X119634000Y-99327548D01*
X119634000Y-101327885D01*
X119126000Y-101327885D01*
X119126000Y-98932000D01*
X119146002Y-98863879D01*
X119199658Y-98817386D01*
X119252000Y-98806000D01*
X120698344Y-98806000D01*
X120711875Y-98802027D01*
X120713180Y-98792947D01*
X120671214Y-98625875D01*
X120667894Y-98616124D01*
X120582972Y-98420814D01*
X120578105Y-98411739D01*
X120462426Y-98232926D01*
X120456136Y-98224757D01*
X120312806Y-98067240D01*
X120305273Y-98060215D01*
X120138139Y-97928222D01*
X120129556Y-97922520D01*
X120092602Y-97902120D01*
X120042631Y-97851687D01*
X120027859Y-97782245D01*
X120052975Y-97715839D01*
X120080327Y-97689232D01*
X120132725Y-97651857D01*
X120259860Y-97561173D01*
X120418096Y-97403489D01*
X120477594Y-97320689D01*
X120545435Y-97226277D01*
X120548453Y-97222077D01*
X120569320Y-97179857D01*
X120645136Y-97026453D01*
X120645137Y-97026451D01*
X120647430Y-97021811D01*
X120712370Y-96808069D01*
X120741529Y-96586590D01*
X120743156Y-96520000D01*
X120724852Y-96297361D01*
X120670431Y-96080702D01*
X120581354Y-95875840D01*
X120460014Y-95688277D01*
X120309670Y-95523051D01*
X120305619Y-95519852D01*
X120305615Y-95519848D01*
X120138414Y-95387800D01*
X120138410Y-95387798D01*
X120134359Y-95384598D01*
X120113770Y-95373232D01*
X120076342Y-95352571D01*
X119938789Y-95276638D01*
X119933920Y-95274914D01*
X119933916Y-95274912D01*
X119733087Y-95203795D01*
X119733083Y-95203794D01*
X119728212Y-95202069D01*
X119723119Y-95201162D01*
X119723116Y-95201161D01*
X119513373Y-95163800D01*
X119513367Y-95163799D01*
X119508284Y-95162894D01*
X119434452Y-95161992D01*
X119290081Y-95160228D01*
X119290079Y-95160228D01*
X119284911Y-95160165D01*
X119064091Y-95193955D01*
X118851756Y-95263357D01*
X118821443Y-95279137D01*
X118675789Y-95354960D01*
X118653607Y-95366507D01*
X118649474Y-95369610D01*
X118649471Y-95369612D01*
X118483578Y-95494168D01*
X118474965Y-95500635D01*
X118471393Y-95504373D01*
X118329812Y-95652529D01*
X118320629Y-95662138D01*
X118213201Y-95819621D01*
X118158293Y-95864621D01*
X118087768Y-95872792D01*
X118024021Y-95841538D01*
X118003324Y-95817054D01*
X117922822Y-95692617D01*
X117922820Y-95692614D01*
X117920014Y-95688277D01*
X117769670Y-95523051D01*
X117765619Y-95519852D01*
X117765615Y-95519848D01*
X117598414Y-95387800D01*
X117598410Y-95387798D01*
X117594359Y-95384598D01*
X117573770Y-95373232D01*
X117536342Y-95352571D01*
X117398789Y-95276638D01*
X117393920Y-95274914D01*
X117393916Y-95274912D01*
X117193087Y-95203795D01*
X117193083Y-95203794D01*
X117188212Y-95202069D01*
X117183119Y-95201162D01*
X117183116Y-95201161D01*
X116973373Y-95163800D01*
X116973367Y-95163799D01*
X116968284Y-95162894D01*
X116894452Y-95161992D01*
X116750081Y-95160228D01*
X116750079Y-95160228D01*
X116744911Y-95160165D01*
X116524091Y-95193955D01*
X116311756Y-95263357D01*
X116281443Y-95279137D01*
X116135789Y-95354960D01*
X116113607Y-95366507D01*
X116109474Y-95369610D01*
X116109471Y-95369612D01*
X115943578Y-95494168D01*
X115934965Y-95500635D01*
X115931393Y-95504373D01*
X115789812Y-95652529D01*
X115780629Y-95662138D01*
X115777720Y-95666403D01*
X115777714Y-95666411D01*
X115737017Y-95726071D01*
X115654743Y-95846680D01*
X115560688Y-96049305D01*
X115500989Y-96264570D01*
X115477251Y-96486695D01*
X115477548Y-96491848D01*
X115477548Y-96491851D01*
X115482856Y-96583903D01*
X115490110Y-96709715D01*
X115491247Y-96714761D01*
X115491248Y-96714767D01*
X115491459Y-96715702D01*
X115539222Y-96927639D01*
X115623266Y-97134616D01*
X115674019Y-97217438D01*
X115737291Y-97320688D01*
X115739987Y-97325088D01*
X115886250Y-97493938D01*
X116058126Y-97636632D01*
X116100602Y-97661453D01*
X116131445Y-97679476D01*
X116180169Y-97731114D01*
X116193240Y-97800897D01*
X116166509Y-97866669D01*
X116126055Y-97900027D01*
X116113607Y-97906507D01*
X116109474Y-97909610D01*
X116109471Y-97909612D01*
X115939100Y-98037530D01*
X115934965Y-98040635D01*
X115881947Y-98096115D01*
X115784451Y-98198139D01*
X115780629Y-98202138D01*
X115654743Y-98386680D01*
X115608231Y-98486883D01*
X115565053Y-98579902D01*
X115560688Y-98589305D01*
X115500989Y-98804570D01*
X115477251Y-99026695D01*
X115490110Y-99249715D01*
X115491247Y-99254761D01*
X115491248Y-99254767D01*
X115491676Y-99256666D01*
X115539222Y-99467639D01*
X115623266Y-99674616D01*
X115739987Y-99865088D01*
X115886250Y-100033938D01*
X116058126Y-100176632D01*
X116071608Y-100184510D01*
X116131445Y-100219476D01*
X116180169Y-100271114D01*
X116193240Y-100340897D01*
X116166509Y-100406669D01*
X116126055Y-100440027D01*
X116113607Y-100446507D01*
X116109474Y-100449610D01*
X116109471Y-100449612D01*
X115939100Y-100577530D01*
X115934965Y-100580635D01*
X115931393Y-100584373D01*
X115784451Y-100738139D01*
X115780629Y-100742138D01*
X115777715Y-100746410D01*
X115777714Y-100746411D01*
X115770880Y-100756430D01*
X115654743Y-100926680D01*
X115638899Y-100960814D01*
X115565053Y-101119902D01*
X115560688Y-101129305D01*
X115500989Y-101344570D01*
X115477251Y-101566695D01*
X115490110Y-101789715D01*
X115491247Y-101794761D01*
X115491248Y-101794767D01*
X115491676Y-101796666D01*
X115539222Y-102007639D01*
X115623266Y-102214616D01*
X115739987Y-102405088D01*
X115886250Y-102573938D01*
X116058126Y-102716632D01*
X116081020Y-102730010D01*
X116131445Y-102759476D01*
X116180169Y-102811114D01*
X116193240Y-102880897D01*
X116166509Y-102946669D01*
X116126055Y-102980027D01*
X116113607Y-102986507D01*
X116109474Y-102989610D01*
X116109471Y-102989612D01*
X115939100Y-103117530D01*
X115934965Y-103120635D01*
X115931393Y-103124373D01*
X115784451Y-103278139D01*
X115780629Y-103282138D01*
X115777715Y-103286410D01*
X115777714Y-103286411D01*
X115770880Y-103296430D01*
X115654743Y-103466680D01*
X115652564Y-103471375D01*
X115580748Y-103626090D01*
X115560688Y-103669305D01*
X115500989Y-103884570D01*
X115477251Y-104106695D01*
X115490110Y-104329715D01*
X115491247Y-104334761D01*
X115491248Y-104334767D01*
X115491676Y-104336666D01*
X115539222Y-104547639D01*
X115623266Y-104754616D01*
X115739987Y-104945088D01*
X115886250Y-105113938D01*
X116058126Y-105256632D01*
X116081020Y-105270010D01*
X116131445Y-105299476D01*
X116180169Y-105351114D01*
X116193240Y-105420897D01*
X116166509Y-105486669D01*
X116126055Y-105520027D01*
X116113607Y-105526507D01*
X116109474Y-105529610D01*
X116109471Y-105529612D01*
X115939100Y-105657530D01*
X115934965Y-105660635D01*
X115931393Y-105664373D01*
X115784451Y-105818139D01*
X115780629Y-105822138D01*
X115777715Y-105826410D01*
X115777714Y-105826411D01*
X115770880Y-105836430D01*
X115654743Y-106006680D01*
X115652564Y-106011375D01*
X115564347Y-106201423D01*
X115560688Y-106209305D01*
X115500989Y-106424570D01*
X115477251Y-106646695D01*
X115477548Y-106651848D01*
X115477548Y-106651851D01*
X115484045Y-106764534D01*
X115490110Y-106869715D01*
X115491247Y-106874761D01*
X115491248Y-106874767D01*
X115497615Y-106903017D01*
X115539222Y-107087639D01*
X115623266Y-107294616D01*
X115739987Y-107485088D01*
X115886250Y-107653938D01*
X116058126Y-107796632D01*
X116071608Y-107804510D01*
X116131445Y-107839476D01*
X116180169Y-107891114D01*
X116193240Y-107960897D01*
X116166509Y-108026669D01*
X116126055Y-108060027D01*
X116113607Y-108066507D01*
X116109474Y-108069610D01*
X116109471Y-108069612D01*
X115939100Y-108197530D01*
X115934965Y-108200635D01*
X115931393Y-108204373D01*
X115784451Y-108358139D01*
X115780629Y-108362138D01*
X115777715Y-108366410D01*
X115777714Y-108366411D01*
X115770880Y-108376430D01*
X115654743Y-108546680D01*
X115612427Y-108637842D01*
X115565053Y-108739902D01*
X115560688Y-108749305D01*
X115500989Y-108964570D01*
X115477251Y-109186695D01*
X115477548Y-109191848D01*
X115477548Y-109191851D01*
X115483011Y-109286590D01*
X115490110Y-109409715D01*
X115491247Y-109414761D01*
X115491248Y-109414767D01*
X115504597Y-109474000D01*
X115539222Y-109627639D01*
X115623266Y-109834616D01*
X115739987Y-110025088D01*
X115886250Y-110193938D01*
X116058126Y-110336632D01*
X116081020Y-110350010D01*
X116131445Y-110379476D01*
X116180169Y-110431114D01*
X116193240Y-110500897D01*
X116166509Y-110566669D01*
X116126055Y-110600027D01*
X116113607Y-110606507D01*
X116109474Y-110609610D01*
X116109471Y-110609612D01*
X115939100Y-110737530D01*
X115934965Y-110740635D01*
X115931393Y-110744373D01*
X115784451Y-110898139D01*
X115780629Y-110902138D01*
X115777715Y-110906410D01*
X115777714Y-110906411D01*
X115770880Y-110916430D01*
X115654743Y-111086680D01*
X115560688Y-111289305D01*
X115500989Y-111504570D01*
X115477251Y-111726695D01*
X115490110Y-111949715D01*
X115491247Y-111954761D01*
X115491248Y-111954767D01*
X115491677Y-111956669D01*
X115539222Y-112167639D01*
X115623266Y-112374616D01*
X115739987Y-112565088D01*
X115886250Y-112733938D01*
X116058126Y-112876632D01*
X116081020Y-112890010D01*
X116131445Y-112919476D01*
X116180169Y-112971114D01*
X116193240Y-113040897D01*
X116166509Y-113106669D01*
X116126055Y-113140027D01*
X116113607Y-113146507D01*
X116109474Y-113149610D01*
X116109471Y-113149612D01*
X115939100Y-113277530D01*
X115934965Y-113280635D01*
X115931393Y-113284373D01*
X115784451Y-113438139D01*
X115780629Y-113442138D01*
X115777715Y-113446410D01*
X115777714Y-113446411D01*
X115770880Y-113456430D01*
X115654743Y-113626680D01*
X115560688Y-113829305D01*
X115500989Y-114044570D01*
X115477251Y-114266695D01*
X115490110Y-114489715D01*
X115491247Y-114494761D01*
X115491248Y-114494767D01*
X115491676Y-114496666D01*
X115539222Y-114707639D01*
X115623266Y-114914616D01*
X115739987Y-115105088D01*
X115886250Y-115273938D01*
X116058126Y-115416632D01*
X116071608Y-115424510D01*
X116131445Y-115459476D01*
X116180169Y-115511114D01*
X116193240Y-115580897D01*
X116166509Y-115646669D01*
X116126055Y-115680027D01*
X116113607Y-115686507D01*
X116109474Y-115689610D01*
X116109471Y-115689612D01*
X115939100Y-115817530D01*
X115934965Y-115820635D01*
X115931393Y-115824373D01*
X115784451Y-115978139D01*
X115780629Y-115982138D01*
X115777715Y-115986410D01*
X115777714Y-115986411D01*
X115770880Y-115996430D01*
X115654743Y-116166680D01*
X115638899Y-116200814D01*
X115565053Y-116359902D01*
X115560688Y-116369305D01*
X115500989Y-116584570D01*
X115477251Y-116806695D01*
X115490110Y-117029715D01*
X115491247Y-117034761D01*
X115491248Y-117034767D01*
X115491676Y-117036666D01*
X115539222Y-117247639D01*
X115623266Y-117454616D01*
X115739987Y-117645088D01*
X115886250Y-117813938D01*
X116058126Y-117956632D01*
X116071608Y-117964510D01*
X116131445Y-117999476D01*
X116180169Y-118051114D01*
X116193240Y-118120897D01*
X116166509Y-118186669D01*
X116126055Y-118220027D01*
X116113607Y-118226507D01*
X116109474Y-118229610D01*
X116109471Y-118229612D01*
X115939100Y-118357530D01*
X115934965Y-118360635D01*
X115895128Y-118402322D01*
X115784451Y-118518139D01*
X115780629Y-118522138D01*
X115777715Y-118526410D01*
X115777714Y-118526411D01*
X115770880Y-118536430D01*
X115654743Y-118706680D01*
X115607716Y-118807992D01*
X115565053Y-118899902D01*
X115560688Y-118909305D01*
X115500989Y-119124570D01*
X115477251Y-119346695D01*
X113538500Y-119346695D01*
X113538500Y-109228623D01*
X113538502Y-109227853D01*
X113538753Y-109186695D01*
X113538976Y-109150279D01*
X113530850Y-109121847D01*
X113527272Y-109105085D01*
X113524352Y-109084698D01*
X113523080Y-109075813D01*
X113512451Y-109052436D01*
X113506004Y-109034913D01*
X113501416Y-109018862D01*
X113498949Y-109010229D01*
X113490830Y-108997361D01*
X113483170Y-108985220D01*
X113475030Y-108970135D01*
X113462792Y-108943218D01*
X113446030Y-108923765D01*
X113434927Y-108908761D01*
X113421224Y-108887042D01*
X113414499Y-108881103D01*
X113414496Y-108881099D01*
X113399062Y-108867468D01*
X113387018Y-108855276D01*
X113373573Y-108839673D01*
X113373570Y-108839671D01*
X113367713Y-108832873D01*
X113346165Y-108818906D01*
X113331291Y-108807615D01*
X113318783Y-108796569D01*
X113318782Y-108796568D01*
X113312049Y-108790622D01*
X113285287Y-108778057D01*
X113270309Y-108769737D01*
X113253017Y-108758529D01*
X113253012Y-108758527D01*
X113245485Y-108753648D01*
X113236892Y-108751078D01*
X113236887Y-108751076D01*
X113220880Y-108746289D01*
X113203436Y-108739628D01*
X113188324Y-108732533D01*
X113188322Y-108732532D01*
X113180200Y-108728719D01*
X113171333Y-108727338D01*
X113171332Y-108727338D01*
X113161690Y-108725837D01*
X113150983Y-108724170D01*
X113134268Y-108720387D01*
X113114534Y-108714485D01*
X113114528Y-108714484D01*
X113105934Y-108711914D01*
X113096963Y-108711859D01*
X113096962Y-108711859D01*
X113086903Y-108711798D01*
X113071494Y-108711704D01*
X113070711Y-108711671D01*
X113069614Y-108711500D01*
X113038623Y-108711500D01*
X113037853Y-108711498D01*
X112964215Y-108711048D01*
X112964214Y-108711048D01*
X112960279Y-108711024D01*
X112958935Y-108711408D01*
X112957590Y-108711500D01*
X108584500Y-108711500D01*
X108516379Y-108691498D01*
X108469886Y-108637842D01*
X108458500Y-108585500D01*
X108458500Y-107314500D01*
X108478502Y-107246379D01*
X108532158Y-107199886D01*
X108584500Y-107188500D01*
X113021377Y-107188500D01*
X113022148Y-107188502D01*
X113099721Y-107188976D01*
X113128152Y-107180850D01*
X113144915Y-107177272D01*
X113174187Y-107173080D01*
X113197564Y-107162451D01*
X113215087Y-107156004D01*
X113239771Y-107148949D01*
X113247365Y-107144157D01*
X113247368Y-107144156D01*
X113264780Y-107133170D01*
X113279865Y-107125030D01*
X113306782Y-107112792D01*
X113326235Y-107096030D01*
X113341239Y-107084927D01*
X113362958Y-107071224D01*
X113368897Y-107064499D01*
X113368901Y-107064496D01*
X113382532Y-107049062D01*
X113394724Y-107037018D01*
X113410327Y-107023573D01*
X113410329Y-107023570D01*
X113417127Y-107017713D01*
X113431094Y-106996165D01*
X113442385Y-106981291D01*
X113453431Y-106968783D01*
X113453432Y-106968782D01*
X113459378Y-106962049D01*
X113471943Y-106935287D01*
X113480263Y-106920309D01*
X113491471Y-106903017D01*
X113491473Y-106903012D01*
X113496352Y-106895485D01*
X113498922Y-106886892D01*
X113498924Y-106886887D01*
X113503711Y-106870880D01*
X113510372Y-106853436D01*
X113517467Y-106838324D01*
X113517468Y-106838322D01*
X113521281Y-106830200D01*
X113525830Y-106800983D01*
X113529613Y-106784268D01*
X113535515Y-106764534D01*
X113535516Y-106764528D01*
X113538086Y-106755934D01*
X113538296Y-106721494D01*
X113538329Y-106720711D01*
X113538500Y-106719614D01*
X113538500Y-106688623D01*
X113538502Y-106687853D01*
X113538952Y-106614215D01*
X113538952Y-106614214D01*
X113538976Y-106610279D01*
X113538592Y-106608935D01*
X113538500Y-106607590D01*
X113538500Y-94581695D01*
X124367251Y-94581695D01*
X124367548Y-94586848D01*
X124367548Y-94586851D01*
X124373011Y-94681590D01*
X124380110Y-94804715D01*
X124381247Y-94809761D01*
X124381248Y-94809767D01*
X124401119Y-94897939D01*
X124429222Y-95022639D01*
X124513266Y-95229616D01*
X124552193Y-95293139D01*
X124627291Y-95415688D01*
X124629987Y-95420088D01*
X124776250Y-95588938D01*
X124780230Y-95592242D01*
X124784981Y-95596187D01*
X124824616Y-95655090D01*
X124826113Y-95726071D01*
X124788997Y-95786593D01*
X124748725Y-95811112D01*
X124667564Y-95841538D01*
X124633295Y-95854385D01*
X124516739Y-95941739D01*
X124429385Y-96058295D01*
X124378255Y-96194684D01*
X124371500Y-96256866D01*
X124371500Y-98053134D01*
X124378255Y-98115316D01*
X124429385Y-98251705D01*
X124516739Y-98368261D01*
X124633295Y-98455615D01*
X124769684Y-98506745D01*
X124831866Y-98513500D01*
X126628134Y-98513500D01*
X126690316Y-98506745D01*
X126826705Y-98455615D01*
X126943261Y-98368261D01*
X127030615Y-98251705D01*
X127043954Y-98216124D01*
X127074598Y-98134382D01*
X127117240Y-98077618D01*
X127183802Y-98052918D01*
X127253150Y-98068126D01*
X127287817Y-98096114D01*
X127316250Y-98128938D01*
X127488126Y-98271632D01*
X127681000Y-98384338D01*
X127685825Y-98386180D01*
X127685826Y-98386181D01*
X127699428Y-98391375D01*
X127889692Y-98464030D01*
X127894760Y-98465061D01*
X127894763Y-98465062D01*
X128002017Y-98486883D01*
X128108597Y-98508567D01*
X128113772Y-98508757D01*
X128113774Y-98508757D01*
X128326673Y-98516564D01*
X128326677Y-98516564D01*
X128331837Y-98516753D01*
X128336957Y-98516097D01*
X128336959Y-98516097D01*
X128548288Y-98489025D01*
X128548289Y-98489025D01*
X128553416Y-98488368D01*
X128558366Y-98486883D01*
X128762429Y-98425661D01*
X128762434Y-98425659D01*
X128767384Y-98424174D01*
X128967994Y-98325896D01*
X129149860Y-98196173D01*
X129308096Y-98038489D01*
X129407591Y-97900027D01*
X129438453Y-97857077D01*
X129439776Y-97858028D01*
X129486645Y-97814857D01*
X129556580Y-97802625D01*
X129622026Y-97830144D01*
X129649875Y-97861994D01*
X129656318Y-97872508D01*
X129709987Y-97960088D01*
X129856250Y-98128938D01*
X130028126Y-98271632D01*
X130221000Y-98384338D01*
X130225825Y-98386180D01*
X130225826Y-98386181D01*
X130239428Y-98391375D01*
X130429692Y-98464030D01*
X130434760Y-98465061D01*
X130434763Y-98465062D01*
X130542017Y-98486883D01*
X130648597Y-98508567D01*
X130653772Y-98508757D01*
X130653774Y-98508757D01*
X130866673Y-98516564D01*
X130866677Y-98516564D01*
X130871837Y-98516753D01*
X130876957Y-98516097D01*
X130876959Y-98516097D01*
X131088288Y-98489025D01*
X131088289Y-98489025D01*
X131093416Y-98488368D01*
X131098366Y-98486883D01*
X131302429Y-98425661D01*
X131302434Y-98425659D01*
X131307384Y-98424174D01*
X131507994Y-98325896D01*
X131689860Y-98196173D01*
X131848096Y-98038489D01*
X131958141Y-97885345D01*
X131975435Y-97861277D01*
X131978453Y-97857077D01*
X131985839Y-97842134D01*
X132075136Y-97661453D01*
X132075137Y-97661451D01*
X132077430Y-97656811D01*
X132109900Y-97549940D01*
X132140865Y-97448023D01*
X132140865Y-97448021D01*
X132142370Y-97443069D01*
X132171529Y-97221590D01*
X132171611Y-97218240D01*
X132173074Y-97158365D01*
X132173074Y-97158361D01*
X132173156Y-97155000D01*
X132154852Y-96932361D01*
X132100431Y-96715702D01*
X132011354Y-96510840D01*
X131890014Y-96323277D01*
X131739670Y-96158051D01*
X131735619Y-96154852D01*
X131735615Y-96154848D01*
X131568414Y-96022800D01*
X131568410Y-96022798D01*
X131564359Y-96019598D01*
X131523053Y-95996796D01*
X131473084Y-95946364D01*
X131458312Y-95876921D01*
X131483428Y-95810516D01*
X131510780Y-95783909D01*
X131554603Y-95752650D01*
X131689860Y-95656173D01*
X131848096Y-95498489D01*
X131907594Y-95415689D01*
X131975435Y-95321277D01*
X131978453Y-95317077D01*
X131986736Y-95300319D01*
X132075136Y-95121453D01*
X132075137Y-95121451D01*
X132077430Y-95116811D01*
X132142370Y-94903069D01*
X132171529Y-94681590D01*
X132173156Y-94615000D01*
X132154852Y-94392361D01*
X132100431Y-94175702D01*
X132011354Y-93970840D01*
X131890014Y-93783277D01*
X131739670Y-93618051D01*
X131735619Y-93614852D01*
X131735615Y-93614848D01*
X131568414Y-93482800D01*
X131568410Y-93482798D01*
X131564359Y-93479598D01*
X131368789Y-93371638D01*
X131363920Y-93369914D01*
X131363916Y-93369912D01*
X131163087Y-93298795D01*
X131163083Y-93298794D01*
X131158212Y-93297069D01*
X131153119Y-93296162D01*
X131153116Y-93296161D01*
X130943373Y-93258800D01*
X130943367Y-93258799D01*
X130938284Y-93257894D01*
X130864452Y-93256992D01*
X130720081Y-93255228D01*
X130720079Y-93255228D01*
X130714911Y-93255165D01*
X130494091Y-93288955D01*
X130281756Y-93358357D01*
X130083607Y-93461507D01*
X130079474Y-93464610D01*
X130079471Y-93464612D01*
X130055247Y-93482800D01*
X129904965Y-93595635D01*
X129750629Y-93757138D01*
X129643201Y-93914621D01*
X129588293Y-93959621D01*
X129517768Y-93967792D01*
X129454021Y-93936538D01*
X129433324Y-93912054D01*
X129352822Y-93787617D01*
X129352820Y-93787614D01*
X129350014Y-93783277D01*
X129199670Y-93618051D01*
X129195619Y-93614852D01*
X129195615Y-93614848D01*
X129028414Y-93482800D01*
X129028410Y-93482798D01*
X129024359Y-93479598D01*
X128828789Y-93371638D01*
X128823920Y-93369914D01*
X128823916Y-93369912D01*
X128623087Y-93298795D01*
X128623083Y-93298794D01*
X128618212Y-93297069D01*
X128613119Y-93296162D01*
X128613116Y-93296161D01*
X128403373Y-93258800D01*
X128403367Y-93258799D01*
X128398284Y-93257894D01*
X128324452Y-93256992D01*
X128180081Y-93255228D01*
X128180079Y-93255228D01*
X128174911Y-93255165D01*
X127954091Y-93288955D01*
X127741756Y-93358357D01*
X127543607Y-93461507D01*
X127539474Y-93464610D01*
X127539471Y-93464612D01*
X127515247Y-93482800D01*
X127364965Y-93595635D01*
X127210629Y-93757138D01*
X127103201Y-93914621D01*
X127048293Y-93959621D01*
X126977768Y-93967792D01*
X126914021Y-93936538D01*
X126893324Y-93912054D01*
X126812822Y-93787617D01*
X126812820Y-93787614D01*
X126810014Y-93783277D01*
X126659670Y-93618051D01*
X126655619Y-93614852D01*
X126655615Y-93614848D01*
X126488414Y-93482800D01*
X126488410Y-93482798D01*
X126484359Y-93479598D01*
X126288789Y-93371638D01*
X126283920Y-93369914D01*
X126283916Y-93369912D01*
X126083087Y-93298795D01*
X126083083Y-93298794D01*
X126078212Y-93297069D01*
X126073119Y-93296162D01*
X126073116Y-93296161D01*
X125863373Y-93258800D01*
X125863367Y-93258799D01*
X125858284Y-93257894D01*
X125784452Y-93256992D01*
X125640081Y-93255228D01*
X125640079Y-93255228D01*
X125634911Y-93255165D01*
X125414091Y-93288955D01*
X125201756Y-93358357D01*
X125003607Y-93461507D01*
X124999474Y-93464610D01*
X124999471Y-93464612D01*
X124975247Y-93482800D01*
X124824965Y-93595635D01*
X124670629Y-93757138D01*
X124544743Y-93941680D01*
X124450688Y-94144305D01*
X124390989Y-94359570D01*
X124367251Y-94581695D01*
X113538500Y-94581695D01*
X113538500Y-92074500D01*
X113558502Y-92006379D01*
X113612158Y-91959886D01*
X113664500Y-91948500D01*
X143510500Y-91948500D01*
X143578621Y-91968502D01*
G37*
G04 #@! TD.AperFunction*
G04 #@! TA.AperFunction,Conductor*
G36*
X119576121Y-111143502D02*
G01*
X119622614Y-111197158D01*
X119634000Y-111249500D01*
X119634000Y-111487885D01*
X119638475Y-111503124D01*
X119639865Y-111504329D01*
X119647548Y-111506000D01*
X120698344Y-111506000D01*
X120711875Y-111502027D01*
X120713180Y-111492947D01*
X120671214Y-111325875D01*
X120667894Y-111316123D01*
X120660772Y-111299744D01*
X120651951Y-111229297D01*
X120682617Y-111165265D01*
X120743033Y-111127977D01*
X120776321Y-111123500D01*
X135575405Y-111123500D01*
X135643526Y-111143502D01*
X135664501Y-111160405D01*
X135798729Y-111294634D01*
X135832754Y-111356946D01*
X135831050Y-111417401D01*
X135807585Y-111502013D01*
X135783609Y-111726362D01*
X135783906Y-111731514D01*
X135783906Y-111731518D01*
X135794692Y-111918574D01*
X135796597Y-111951614D01*
X135797736Y-111956667D01*
X135797736Y-111956669D01*
X135840809Y-112147801D01*
X135836273Y-112218652D01*
X135794151Y-112275803D01*
X135727817Y-112301109D01*
X135717892Y-112301501D01*
X120804818Y-112301501D01*
X120736697Y-112281499D01*
X120690204Y-112227843D01*
X120680100Y-112157569D01*
X120684259Y-112138873D01*
X120710379Y-112052903D01*
X120712555Y-112042837D01*
X120713986Y-112031962D01*
X120711775Y-112017778D01*
X120698617Y-112014000D01*
X119652115Y-112014000D01*
X119636876Y-112018475D01*
X119635671Y-112019865D01*
X119634000Y-112027548D01*
X119634000Y-112175501D01*
X119613998Y-112243622D01*
X119560342Y-112290115D01*
X119508000Y-112301501D01*
X119252000Y-112301501D01*
X119183879Y-112281499D01*
X119137386Y-112227843D01*
X119126000Y-112175501D01*
X119126000Y-111249500D01*
X119146002Y-111181379D01*
X119199658Y-111134886D01*
X119252000Y-111123500D01*
X119508000Y-111123500D01*
X119576121Y-111143502D01*
G37*
G04 #@! TD.AperFunction*
G04 #@! TA.AperFunction,Conductor*
G36*
X119576121Y-106158501D02*
G01*
X119622614Y-106212157D01*
X119634000Y-106264499D01*
X119634000Y-106407885D01*
X119638475Y-106423124D01*
X119639865Y-106424329D01*
X119647548Y-106426000D01*
X120698344Y-106426000D01*
X120711875Y-106422027D01*
X120713180Y-106412947D01*
X120683602Y-106295195D01*
X120686406Y-106224254D01*
X120727118Y-106166090D01*
X120792813Y-106139171D01*
X120805806Y-106138499D01*
X135670404Y-106138499D01*
X135738525Y-106158501D01*
X135759499Y-106175404D01*
X135798728Y-106214633D01*
X135832754Y-106276945D01*
X135831051Y-106337397D01*
X135807585Y-106422013D01*
X135783609Y-106646362D01*
X135783906Y-106651514D01*
X135783906Y-106651518D01*
X135793698Y-106821332D01*
X135796597Y-106871614D01*
X135797734Y-106876660D01*
X135797735Y-106876666D01*
X135811978Y-106939865D01*
X135846200Y-107091720D01*
X135848142Y-107096502D01*
X135848143Y-107096506D01*
X135929142Y-107295982D01*
X135931086Y-107300769D01*
X135947249Y-107327145D01*
X136041341Y-107480689D01*
X136048975Y-107493147D01*
X136196702Y-107663687D01*
X136370299Y-107807810D01*
X136374751Y-107810412D01*
X136374756Y-107810415D01*
X136424069Y-107839231D01*
X136472792Y-107890870D01*
X136485863Y-107960653D01*
X136459131Y-108026425D01*
X136428595Y-108053783D01*
X136426335Y-108054960D01*
X136245905Y-108190430D01*
X136090024Y-108353550D01*
X135962878Y-108539940D01*
X135960704Y-108544624D01*
X135960702Y-108544627D01*
X135870186Y-108739628D01*
X135867881Y-108744593D01*
X135807585Y-108962013D01*
X135783609Y-109186362D01*
X135783906Y-109191514D01*
X135783906Y-109191518D01*
X135789569Y-109289721D01*
X135796597Y-109411614D01*
X135797734Y-109416660D01*
X135797735Y-109416666D01*
X135811978Y-109479865D01*
X135846200Y-109631720D01*
X135848142Y-109636503D01*
X135848145Y-109636512D01*
X135867061Y-109683095D01*
X135874158Y-109753736D01*
X135841937Y-109817000D01*
X135780627Y-109852800D01*
X135750319Y-109856500D01*
X120775955Y-109856500D01*
X120707834Y-109836498D01*
X120661341Y-109782842D01*
X120651237Y-109712568D01*
X120655396Y-109693872D01*
X120710379Y-109512903D01*
X120712555Y-109502837D01*
X120713986Y-109491962D01*
X120711775Y-109477778D01*
X120698617Y-109474000D01*
X119652115Y-109474000D01*
X119636876Y-109478475D01*
X119635671Y-109479865D01*
X119634000Y-109487548D01*
X119634000Y-109730500D01*
X119613998Y-109798621D01*
X119560342Y-109845114D01*
X119508000Y-109856500D01*
X119252000Y-109856500D01*
X119183879Y-109836498D01*
X119137386Y-109782842D01*
X119126000Y-109730500D01*
X119126000Y-108947885D01*
X119634000Y-108947885D01*
X119638475Y-108963124D01*
X119639865Y-108964329D01*
X119647548Y-108966000D01*
X120698344Y-108966000D01*
X120711875Y-108962027D01*
X120713180Y-108952947D01*
X120671214Y-108785875D01*
X120667894Y-108776124D01*
X120582972Y-108580814D01*
X120578105Y-108571739D01*
X120462426Y-108392926D01*
X120456136Y-108384757D01*
X120312806Y-108227240D01*
X120305273Y-108220215D01*
X120138139Y-108088222D01*
X120129552Y-108082517D01*
X120092116Y-108061851D01*
X120042146Y-108011419D01*
X120027374Y-107941976D01*
X120052490Y-107875571D01*
X120079842Y-107848964D01*
X120255327Y-107723792D01*
X120263200Y-107717139D01*
X120414052Y-107566812D01*
X120420730Y-107558965D01*
X120545003Y-107386020D01*
X120550313Y-107377183D01*
X120644670Y-107186267D01*
X120648469Y-107176672D01*
X120710377Y-106972910D01*
X120712555Y-106962837D01*
X120713986Y-106951962D01*
X120711775Y-106937778D01*
X120698617Y-106934000D01*
X119652115Y-106934000D01*
X119636876Y-106938475D01*
X119635671Y-106939865D01*
X119634000Y-106947548D01*
X119634000Y-108947885D01*
X119126000Y-108947885D01*
X119126000Y-106264499D01*
X119146002Y-106196378D01*
X119199658Y-106149885D01*
X119252000Y-106138499D01*
X119508000Y-106138499D01*
X119576121Y-106158501D01*
G37*
G04 #@! TD.AperFunction*
G04 #@! TA.AperFunction,Conductor*
G36*
X119576121Y-103618501D02*
G01*
X119622614Y-103672157D01*
X119634000Y-103724499D01*
X119634000Y-103867885D01*
X119638475Y-103883124D01*
X119639865Y-103884329D01*
X119647548Y-103886000D01*
X120698344Y-103886000D01*
X120711875Y-103882027D01*
X120713180Y-103872947D01*
X120683602Y-103755195D01*
X120686406Y-103684254D01*
X120727118Y-103626090D01*
X120792813Y-103599171D01*
X120805806Y-103598499D01*
X135670404Y-103598499D01*
X135738525Y-103618501D01*
X135759499Y-103635404D01*
X135798728Y-103674633D01*
X135832754Y-103736945D01*
X135831051Y-103797397D01*
X135807585Y-103882013D01*
X135783609Y-104106362D01*
X135783906Y-104111514D01*
X135783906Y-104111518D01*
X135794692Y-104298574D01*
X135796597Y-104331614D01*
X135797734Y-104336660D01*
X135797735Y-104336666D01*
X135811978Y-104399865D01*
X135846200Y-104551720D01*
X135848142Y-104556502D01*
X135848143Y-104556506D01*
X135905637Y-104698095D01*
X135912733Y-104768736D01*
X135880511Y-104831999D01*
X135819202Y-104867800D01*
X135788894Y-104871499D01*
X120736175Y-104871499D01*
X120668054Y-104851497D01*
X120621561Y-104797841D01*
X120611457Y-104727567D01*
X120623218Y-104689672D01*
X120644670Y-104646267D01*
X120648469Y-104636672D01*
X120710377Y-104432910D01*
X120712555Y-104422837D01*
X120713986Y-104411962D01*
X120711775Y-104397778D01*
X120698617Y-104394000D01*
X119652115Y-104394000D01*
X119636876Y-104398475D01*
X119635671Y-104399865D01*
X119634000Y-104407548D01*
X119634000Y-104745499D01*
X119613998Y-104813620D01*
X119560342Y-104860113D01*
X119508000Y-104871499D01*
X119252000Y-104871499D01*
X119183879Y-104851497D01*
X119137386Y-104797841D01*
X119126000Y-104745499D01*
X119126000Y-103724499D01*
X119146002Y-103656378D01*
X119199658Y-103609885D01*
X119252000Y-103598499D01*
X119508000Y-103598499D01*
X119576121Y-103618501D01*
G37*
G04 #@! TD.AperFunction*
M02*
